<svg xmlns="http://www.w3.org/2000/svg" xmlns:xlink="http://www.w3.org/1999/xlink" viewBox="0 0 646.49 410.83"><defs><style>.cls-1{isolation:isolate;}.cls-2,.cls-3{opacity:0.25;mix-blend-mode:color-dodge;}.cls-2{fill:url(#Безымянный_градиент_154);}.cls-3{fill:url(#Безымянный_градиент_154-2);}.cls-4{fill:url(#linear-gradient);}.cls-5{fill:#df635a;}.cls-6{fill:url(#linear-gradient-2);}.cls-7{fill:#bb5b3b;}.cls-8{fill:#c59954;opacity:0.24;mix-blend-mode:multiply;}.cls-9{fill:#f7e5c1;}.cls-10{fill:url(#linear-gradient-3);}.cls-11{fill:url(#linear-gradient-4);}.cls-12{fill:url(#linear-gradient-5);}.cls-13{fill:url(#linear-gradient-6);}.cls-14{fill:url(#linear-gradient-7);}.cls-15{fill:url(#linear-gradient-8);}.cls-16{fill:url(#linear-gradient-9);}.cls-17{fill:url(#linear-gradient-10);}.cls-18{fill:url(#linear-gradient-11);}.cls-19{fill:url(#linear-gradient-12);}.cls-20{fill:#e9e9e9;}.cls-21{fill:#757ac2;}.cls-22{fill:#404347;}.cls-23{fill:#bdbdbd;}.cls-24{fill:#565a8d;}.cls-25{fill:#dba585;}.cls-26{fill:#3e4148;}.cls-27{fill:#363957;}.cls-28{fill:#dba686;}.cls-29{fill:#1f2531;}.cls-30{fill:#4a5c82;}.cls-31{fill:#6783ca;}.cls-32{fill:#474442;}.cls-33{fill:#997761;}.cls-34{fill:#e7b96b;}.cls-35{fill:#e09637;}.cls-36{fill:#eac483;}.cls-37{fill:#f7f7f7;mix-blend-mode:soft-light;}.cls-38{fill:#3a4965;}.cls-39{fill:#5871ab;}.cls-40{fill:#2c3d54;}.cls-41{fill:#e6d8d1;}.cls-42{fill:#dcac92;}.cls-43{fill:#334862;}.cls-44{fill:#e8b79a;}.cls-45{fill:#3a5271;}.cls-46{fill:#20313f;}.cls-47{fill:#c99a7d;}.cls-48{fill:#a84848;}.cls-49{fill:#f8e9e1;}.cls-50{fill:#61534b;}</style><linearGradient id="Безымянный_градиент_154" x1="20.8" y1="231.92" x2="622.54" y2="231.92" gradientUnits="userSpaceOnUse"><stop offset="0" stop-color="#a75f4e"/><stop offset="0.04" stop-color="#9e574a"/><stop offset="0.17" stop-color="#843d40"/><stop offset="0.31" stop-color="#702a37"/><stop offset="0.47" stop-color="#621c31"/><stop offset="0.67" stop-color="#5a132e"/><stop offset="1" stop-color="#57112d"/></linearGradient><linearGradient id="Безымянный_градиент_154-2" x1="-1166.38" y1="-1044.17" x2="-627.97" y2="-1044.17" gradientTransform="translate(-556.5 -805.92) rotate(180)" xlink:href="#Безымянный_градиент_154"/><linearGradient id="linear-gradient" x1="-73.98" y1="381.81" x2="617.92" y2="60.01" gradientUnits="userSpaceOnUse"><stop offset="0" stop-color="#aa4966"/><stop offset="1" stop-color="#dc3b57"/></linearGradient><linearGradient id="linear-gradient-2" x1="534.73" y1="110.29" x2="-18.97" y2="429.4" gradientUnits="userSpaceOnUse"><stop offset="0" stop-color="#eebe63"/><stop offset="1" stop-color="#dc3b57"/></linearGradient><linearGradient id="linear-gradient-3" x1="159.02" y1="389.02" x2="259.97" y2="389.02" gradientUnits="userSpaceOnUse"><stop offset="0" stop-color="#e59148"/><stop offset="1" stop-color="#f1cc52"/></linearGradient><linearGradient id="linear-gradient-4" x1="162.71" y1="376.77" x2="263.65" y2="376.77" gradientUnits="userSpaceOnUse"><stop offset="0" stop-color="#db843a"/><stop offset="1" stop-color="#e4c04c"/></linearGradient><linearGradient id="linear-gradient-5" x1="160.65" y1="364.51" x2="261.59" y2="364.51" xlink:href="#linear-gradient-3"/><linearGradient id="linear-gradient-6" x1="162.71" y1="352.26" x2="263.65" y2="352.26" xlink:href="#linear-gradient-4"/><linearGradient id="linear-gradient-7" x1="164.43" y1="340" x2="265.37" y2="340" xlink:href="#linear-gradient-3"/><linearGradient id="linear-gradient-8" x1="161.27" y1="327.75" x2="262.21" y2="327.75" xlink:href="#linear-gradient-4"/><linearGradient id="linear-gradient-9" x1="159.02" y1="315.49" x2="259.97" y2="315.49" xlink:href="#linear-gradient-3"/><linearGradient id="linear-gradient-10" x1="163.14" y1="303.24" x2="264.09" y2="303.24" xlink:href="#linear-gradient-4"/><linearGradient id="linear-gradient-11" x1="167.02" y1="400.77" x2="267.96" y2="400.77" xlink:href="#linear-gradient-4"/><linearGradient id="linear-gradient-12" x1="978.59" y1="-1036.66" x2="1079.97" y2="-1036.66" gradientTransform="matrix(0.98, 0.2, -0.2, 0.98, -969.67, 1131.55)" xlink:href="#linear-gradient-3"/></defs><title>payroll</title><g class="cls-1"><g id="_Layer_" data-name="&lt;Layer&gt;"><path class="cls-2" d="M20.84,209.67C22.72,76,173.14,47.45,343.53,95.11S608.3,62,621.71,204.08,485.13,437.29,340.29,364.79,17.54,445,20.84,209.67Z" transform="translate(-20.8 -26.5)"/><path class="cls-3" d="M73.4,218.56c23.45,123.55,177.64,91.16,204.38,172s305.83,23.37,326.27-91.85c12.88-72.63,21.38-236.33-169.38-248.79S50,95,73.4,218.56Z" transform="translate(-20.8 -26.5)"/><polygon class="cls-4" points="497.07 105.96 497.08 122.38 525.63 122.38 446.11 201.9 400.97 156.75 311.49 246.23 252.76 187.49 231.37 208.88 198.35 175.87 131.91 242.3 112.16 222.56 91.45 222.56 0.97 313.04 11.13 323.21 97.41 236.94 106.21 236.94 131.91 262.64 198.35 196.2 231.37 229.22 252.76 207.82 311.49 266.56 400.97 177.08 446.11 222.23 535.79 132.55 535.8 161.1 552.22 161.1 552.22 105.96 497.07 105.96"/><path class="cls-5" d="M385,39.25a7.49,7.49,0,0,1-2.74-.5,6.85,6.85,0,0,1-2.18-1.37,6.59,6.59,0,0,1-1.48-2,5.82,5.82,0,0,1-.54-2.5,5.94,5.94,0,0,1,.54-2.49,6.48,6.48,0,0,1,1.48-2A7,7,0,0,1,382.25,27a7.53,7.53,0,0,1,5.45,0,6.88,6.88,0,0,1,2.21,1.34,6.48,6.48,0,0,1,1.48,2,5.94,5.94,0,0,1,.54,2.49,5.82,5.82,0,0,1-.54,2.5,6.59,6.59,0,0,1-1.48,2,6.77,6.77,0,0,1-2.21,1.37A7.45,7.45,0,0,1,385,39.25ZM380.4,54.82,392.27,41l10.94-14.39,2.57,2.27L394.29,42.45,383,57.1ZM385,36.43a2.3,2.3,0,0,0,1.16-.29,3.65,3.65,0,0,0,.94-.78,3.56,3.56,0,0,0,.66-1.14,4.13,4.13,0,0,0,.23-1.36,3.74,3.74,0,0,0-.89-2.51,2.71,2.71,0,0,0-2.1-1,2.31,2.31,0,0,0-1.16.3,3.29,3.29,0,0,0-.94.78,3.63,3.63,0,0,0-.66,1.11,4,4,0,0,0-.23,1.35,3.79,3.79,0,0,0,.89,2.52A2.65,2.65,0,0,0,385,36.43Zm16.24,20.79a7.24,7.24,0,0,1-4.92-1.85,6.21,6.21,0,0,1-1.47-2,5.68,5.68,0,0,1-.55-2.5,5.76,5.76,0,0,1,.55-2.51,6.52,6.52,0,0,1,1.47-2A7,7,0,0,1,398.5,45a7.44,7.44,0,0,1,7.68,1.36,6.21,6.21,0,0,1,1.47,2,6,6,0,0,1,.53,2.51,6,6,0,0,1-2,4.5A7.57,7.57,0,0,1,404,56.72,7.46,7.46,0,0,1,401.23,57.22Zm0-2.82a2.4,2.4,0,0,0,1.16-.29,3.7,3.7,0,0,0,.95-.78,3.54,3.54,0,0,0,.65-1.12,4,4,0,0,0,.23-1.34,3.8,3.8,0,0,0-.25-1.41,4.19,4.19,0,0,0-.65-1.14,3.16,3.16,0,0,0-.95-.76,2.58,2.58,0,0,0-1.14-.27,2.27,2.27,0,0,0-1.15.3,3.32,3.32,0,0,0-.95.77,3.46,3.46,0,0,0-.65,1.14,3.94,3.94,0,0,0-.23,1.37,3.71,3.71,0,0,0,.88,2.5A2.68,2.68,0,0,0,401.23,54.4Z" transform="translate(-20.8 -26.5)"/><path class="cls-6" d="M343.75,148.32l32.82-63.2h0s1.95-15.29-14-15.29-19,15.29-28,15.29-6.47-15.29-20.7-15.29-17.69,15.29-31.92,15.29-5.17-15.29-22.86-15.29a23.15,23.15,0,0,0-22.42,15.29h0l32.82,63.2C206.92,165.63,160.8,225.57,160.8,296.86c0,84.81,61.76,115.48,142.28,115.48,38.74,0,74.76-7.1,101.72-23.92h0c29.07-18.13,47.6-47.56,47.6-91.56C452.4,225.57,406.28,165.63,343.75,148.32Z" transform="translate(-20.8 -26.5)"/><path class="cls-7" d="M347.07,240.22a32.23,32.23,0,0,0-5.67-4.15,76.19,76.19,0,0,0-8.53-4.37,78.1,78.1,0,0,0-10.54-3.77,69.41,69.41,0,0,0-11.69-2.28q.09,20.57.19,41.13l4.07.81c7.05,1.61,14,3.38,21,5.46a66.08,66.08,0,0,1,16.05,7,32.75,32.75,0,0,1,10.53,10.29,32.12,32.12,0,0,1,4.34,15.22c.3,5.78-.53,12.12-3.4,17.5a38.86,38.86,0,0,1-11.27,12.95,62.27,62.27,0,0,1-17.41,8.69,103.29,103.29,0,0,1-21.65,4.19q.07,10.41.14,20.83-6,.47-12,.9,0-10.73.05-21.43a115.67,115.67,0,0,1-31.05-4.51,89.32,89.32,0,0,1-26.39-13.26q6.12-9.94,12.19-19.93a36.64,36.64,0,0,0,6.91,5.41,67.28,67.28,0,0,0,10.76,5.49,98.77,98.77,0,0,0,13.65,4.41,81.85,81.85,0,0,0,15.55,2.3q0-20.7,0-41.41c-.86-.26-1.77-.49-2.71-.68s-1.84-.43-2.7-.7a146,146,0,0,1-19.93-6.14,51.12,51.12,0,0,1-13.89-8.09,30.48,30.48,0,0,1-8.05-11c-2.05-4.75-2.45-10.13-2.26-15,.24-6,1.4-12.41,4.27-17.85A39.5,39.5,0,0,1,268,215.42a46.37,46.37,0,0,1,15-7.62c5.94-1.88,12.34-2.39,18.63-2.59l.06-20.23q5.19.44,10.38.84l.12,20.05a96.88,96.88,0,0,1,24.53,6.2A116.87,116.87,0,0,1,357,222.64Q352,231.45,347.07,240.22ZM278,243.73c-.11,4.9,1.82,10.13,6,13.1,5.61,4,12.39,6.06,18.95,7.9l.06-39.42c-6.42.18-13.41.66-18.67,4.79C280.22,233.32,278.14,238.69,278,243.73Zm62.41,65.88a14.65,14.65,0,0,0-8-12.57c-6.68-3.36-14.15-5.54-21.47-7.4q.09,19.67.19,39.34c7.57-.62,15.47-1.86,22-5.9A15.58,15.58,0,0,0,340.43,309.61Z" transform="translate(-20.8 -26.5)"/><path class="cls-8" d="M404.8,388.42c-27,16.82-63,23.92-101.72,23.92-80.52,0-142.28-30.67-142.28-115.48,0-71.29,46.12-131.23,108.65-148.54l-32.82-63.2a23.15,23.15,0,0,1,22.42-15.29c17.69,0,8.63,15.29,22.86,15.29a86.6,86.6,0,0,1,9,18.35c3.81,10.62,6.81,24.91,4.08,40.31a67.22,67.22,0,0,1-2.16,8.72c-1.89,5.88-3.8,16.89-5.05,31.06C281.51,254.48,291.9,404.65,404.8,388.42Z" transform="translate(-20.8 -26.5)"/><path class="cls-9" d="M305.72,154.47c-10.19,0-25.28-1.1-39.82-5.81l.93-5.37c54.19,10,81.56-4.14,81.76-4.28l.47,6.27C348.39,145.75,335.14,154.47,305.72,154.47Z" transform="translate(-20.8 -26.5)"/><path class="cls-9" d="M283.1,149.47c-5.44,0-11.11-.24-17-.8l.55-5.72a181.15,181.15,0,0,0,59.94-4.52,210,210,0,0,0,26.77-8.64l-3.79,7.29c-.38.18-6.13,3.07-21.42,6.88A188.17,188.17,0,0,1,283.1,149.47Z" transform="translate(-20.8 -26.5)"/><path class="cls-9" d="M349.68,137.13s5.94-2.07,3.61-7.38C353.29,129.75,348.15,135.54,349.68,137.13Z" transform="translate(-20.8 -26.5)"/><path class="cls-9" d="M348.59,139s3.37,2.1.47,6.27C349.06,145.28,346.56,143.67,348.59,139Z" transform="translate(-20.8 -26.5)"/><path class="cls-9" d="M266.67,143s-3.75,2.12-.77,5.71C265.9,148.66,270.78,147.67,266.67,143Z" transform="translate(-20.8 -26.5)"/><path class="cls-9" d="M154.22,249.75l-.52-5.18c47.41-4.78,66.27-17.8,74.71-51.58a96.65,96.65,0,0,1,10.83-26.94,59.09,59.09,0,0,1,12.92-15.11c8.43-6.85,15.35-7.6,15.65-7.65l.91,4.86c-.05,0-6.22,1-13.58,7.09-6.85,5.67-16.18,17-21.67,39-4.68,18.72-12.78,31.44-25.5,40C195.85,242.45,179.27,247.23,154.22,249.75Z" transform="translate(-20.8 -26.5)"/><path class="cls-9" d="M181.25,207a12.83,12.83,0,0,1-5.05-.84l2.14-4.74-.05,0S182,202.79,189,200.2c6.7-2.47,17.79-9.12,32.6-26.74,31-36.92,50.55-29.8,51.36-29.48l-1.91,4.85h0s-4.22-1.46-11.79,1.15c-7.16,2.46-18.83,9.12-33.71,26.82-12.83,15.27-24.82,24.88-35.64,28.58A27,27,0,0,1,181.25,207Z" transform="translate(-20.8 -26.5)"/><path class="cls-5" d="M509.39,265.8a6.53,6.53,0,0,0-1.44-1.09,27.82,27.82,0,0,0-2.49-1.31,26.1,26.1,0,0,0-3.16-1.21,17.53,17.53,0,0,0-3.57-.73v11l1.59.38q3.33.9,6,1.91a16.63,16.63,0,0,1,4.59,2.56,10.41,10.41,0,0,1,2.9,3.67,12.15,12.15,0,0,1,1,5.26,13.29,13.29,0,0,1-1.25,6,11.33,11.33,0,0,1-3.38,4.08,15,15,0,0,1-5,2.4,25.67,25.67,0,0,1-6,.92v7h-3.84v-7.08a33.47,33.47,0,0,1-8.71-1.82,31.66,31.66,0,0,1-7.69-3.93l3.9-7.59a12,12,0,0,0,1.75,1.34,21.55,21.55,0,0,0,3,1.63,39.67,39.67,0,0,0,3.89,1.5,21.94,21.94,0,0,0,4.44,1v-11c-.38-.09-.77-.18-1.15-.29s-.76-.22-1.15-.35a39.67,39.67,0,0,1-5.65-1.95,14.94,14.94,0,0,1-4-2.48,9.32,9.32,0,0,1-2.4-3.32,11.57,11.57,0,0,1-.79-4.5,14,14,0,0,1,1.11-5.71,12.88,12.88,0,0,1,3.07-4.31,14.24,14.24,0,0,1,4.62-2.81,21,21,0,0,1,5.74-1.27v-6.51h3.84v6.44a26.77,26.77,0,0,1,7.75,1.72,31.57,31.57,0,0,1,6.22,3.26Zm-19.4.64a3.83,3.83,0,0,0,1.5,3.28,14.48,14.48,0,0,0,4.56,2V261.39Q490,261.78,490,266.44Zm15.5,20.73a3.87,3.87,0,0,0-1.78-3.38,19.59,19.59,0,0,0-5-2.23v10.27C503.24,291.71,505.49,290.15,505.49,287.17Z" transform="translate(-20.8 -26.5)"/><rect class="cls-10" x="159.02" y="382.89" width="100.94" height="12.26"/><rect class="cls-11" x="162.71" y="370.64" width="100.94" height="12.26"/><rect class="cls-12" x="160.65" y="358.38" width="100.94" height="12.26"/><rect class="cls-13" x="162.71" y="346.13" width="100.94" height="12.25"/><rect class="cls-14" x="164.43" y="333.87" width="100.94" height="12.26"/><rect class="cls-15" x="161.27" y="321.62" width="100.94" height="12.26"/><rect class="cls-16" x="159.02" y="309.36" width="100.94" height="12.26"/><rect class="cls-17" x="163.14" y="297.11" width="100.94" height="12.25"/><rect class="cls-18" x="167.02" y="394.64" width="100.94" height="12.26"/><rect class="cls-19" x="193.18" y="311.87" width="100.94" height="12.25" transform="translate(-13.12 -32.24) rotate(1.37)"/><path class="cls-20" d="M411.85,168.77c0-7.07-7.15-12.8-16-12.8a19.4,19.4,0,0,0-5.68.83,16.25,16.25,0,0,0-30.41,1.95,11.86,11.86,0,0,0-4.2-.76,11.07,11.07,0,0,0-11.33,10.78Z" transform="translate(-20.8 -26.5)"/><path class="cls-20" d="M279.73,115.17c0-5.62-5.7-10.19-12.72-10.19a15.44,15.44,0,0,0-4.52.67,12.93,12.93,0,0,0-24.21,1.55,9.43,9.43,0,0,0-3.34-.61,8.81,8.81,0,0,0-9,8.58Z" transform="translate(-20.8 -26.5)"/><rect class="cls-5" x="391.51" y="85.94" width="44.77" height="5.46"/><rect class="cls-5" x="382.14" y="99.69" width="44.77" height="5.46"/><path class="cls-21" d="M161.53,308.25s4.52,1.19,4.62.76.83-3.32.83-3.32c-.52-.47-5.44-1-5.44-1Z" transform="translate(-20.8 -26.5)"/><path class="cls-22" d="M168.83,311.48a12.37,12.37,0,0,1-2.59-2.84c-3.46,0-4.71-.71-4.71-.71s-2.18,5.89-1.66,6.9,3.4.82,9.23,1.6c8.2,1.11,7.45-1.31,6.91-1.95C175.27,313.59,170.16,312.4,168.83,311.48Z" transform="translate(-20.8 -26.5)"/><rect class="cls-23" x="63.97" y="327.97" width="217.47" height="2.07" transform="translate(-192.26 442.61) rotate(-84.45)"/><rect class="cls-23" x="30.59" y="324.74" width="217.47" height="2.07" transform="translate(-219.18 406.47) rotate(-84.46)"/><rect class="cls-23" x="165.18" y="206.24" width="2.07" height="33.53" transform="translate(-92.61 340.4) rotate(-84.46)"/><rect class="cls-23" x="163.67" y="221.77" width="2.07" height="33.53" transform="translate(-109.41 352.93) rotate(-84.46)"/><rect class="cls-23" x="162.17" y="237.29" width="2.07" height="33.53" transform="translate(-126.22 365.45) rotate(-84.46)"/><rect class="cls-23" x="160.66" y="252.81" width="2.07" height="33.53" transform="translate(-143.03 377.97) rotate(-84.46)"/><rect class="cls-23" x="159.15" y="268.33" width="2.07" height="33.53" transform="translate(-159.84 390.49) rotate(-84.46)"/><rect class="cls-23" x="157.65" y="283.85" width="2.07" height="33.53" transform="translate(-176.65 403.02) rotate(-84.46)"/><rect class="cls-23" x="156.14" y="299.37" width="2.07" height="33.53" transform="translate(-193.46 415.54) rotate(-84.46)"/><rect class="cls-23" x="154.64" y="314.89" width="2.07" height="33.53" transform="translate(-210.26 428.06) rotate(-84.46)"/><rect class="cls-23" x="153.13" y="330.41" width="2.07" height="33.53" transform="translate(-227.07 440.59) rotate(-84.46)"/><rect class="cls-23" x="151.62" y="345.93" width="2.07" height="33.53" transform="translate(-243.88 453.11) rotate(-84.46)"/><rect class="cls-23" x="150.12" y="361.45" width="2.07" height="33.53" transform="translate(-260.69 465.62) rotate(-84.46)"/><rect class="cls-23" x="148.61" y="376.97" width="2.07" height="33.53" transform="translate(-277.5 478.14) rotate(-84.46)"/><rect class="cls-23" x="147.11" y="392.49" width="2.07" height="33.53" transform="translate(-294.31 490.68) rotate(-84.46)"/><rect class="cls-23" x="147.11" y="392.49" width="2.07" height="33.53" transform="translate(-294.31 490.68) rotate(-84.46)"/><rect class="cls-23" x="145.6" y="408.01" width="2.07" height="33.53" transform="translate(-311.11 503.2) rotate(-84.46)"/><path class="cls-24" d="M176.71,261.59c-.86-4.36-4.15-16.57-4.15-16.57-2.43-3.88-24.56-1.66-24.56-1.66,1.79,12.26,8.46,12.41,11.38,19s3.4,6.36,7.1,14.38c2.48,5.39-7,29.64-7,29.64l9,1.45c1-4.21,10.95-27.51,10.73-29.92S177.47,265.4,176.71,261.59Z" transform="translate(-20.8 -26.5)"/><path class="cls-25" d="M156.49,185.7c-1.58.8-3.69,2.33-3.76,5.1s1.33,6.89,2.88,9.75,6.09,3.45,9.12,2.32,3.29-10.27.52-14.84S156.49,185.7,156.49,185.7Z" transform="translate(-20.8 -26.5)"/><path class="cls-25" d="M163.72,202.59s-10.62-8.38-9.39-4.81a62.9,62.9,0,0,1,2,7.95s7.95,0,7.55-.79A5.07,5.07,0,0,1,163.72,202.59Z" transform="translate(-20.8 -26.5)"/><path class="cls-26" d="M157.54,185s-5.52,1.53-5.32,4.66,1,6.71,2.24,8.28c0,0,.55.9,2.79.55s5-3.33,5.91-3.66.94-.87.94-.87l.59.85,1,.06s-.9-2.66.46-3.75S164.72,182.51,157.54,185Z" transform="translate(-20.8 -26.5)"/><path class="cls-25" d="M162,192.42c-.52,1.61.77,3.77,1.49,3.59s.8-1.84.48-3.18C163.83,192.31,162.49,190.8,162,192.42Z" transform="translate(-20.8 -26.5)"/><path class="cls-27" d="M166.24,308.64c-3.46,0-4.71-.71-4.71-.71s-2.18,5.88-1.66,6.9,3.4.82,9.23,1.6a26.47,26.47,0,0,0,3.83.29l.34-3.51a25.71,25.71,0,0,1-4.44-1.73A12.37,12.37,0,0,1,166.24,308.64Z" transform="translate(-20.8 -26.5)"/><path class="cls-21" d="M139.15,321.72s4.52,1.2,4.62.76.83-3.31.83-3.31c-.53-.48-5.45-1-5.45-1Z" transform="translate(-20.8 -26.5)"/><path class="cls-24" d="M145.87,257c-.45,6.29-1.28,13.19-1.93,19.76-.73,7.33-2.8,19.18-2.91,23.1s-3.41,21.06-3.41,21.06l8.45,1s5.48-30.28,6.78-33.38,7.72-25.16,7.93-27.64S148,243.36,148,243.36A94.47,94.47,0,0,0,145.87,257Z" transform="translate(-20.8 -26.5)"/><path class="cls-27" d="M146.45,325a12.37,12.37,0,0,1-2.59-2.84c-3.46,0-4.71-.71-4.71-.71s-2.19,5.88-1.66,6.9,3.4.81,9.23,1.6c8.2,1.1,7.45-1.32,6.91-2C152.88,327.07,147.77,325.88,146.45,325Z" transform="translate(-20.8 -26.5)"/><path class="cls-25" d="M210.31,190.72a2.89,2.89,0,0,0-.75-1.41,1.2,1.2,0,0,0-.41-1.1c-.27-.25-1.5-.12-1.62-.09a6.83,6.83,0,0,0-1.48.13l-.2.07c-.7.29-3.93,4.48-3.93,4.48l.58,1.67.81,2.07s3.49-.79,4.26-1a5.47,5.47,0,0,0,1.6-.84l.3-.15c.39-.18.95-.39.95-.39a3.12,3.12,0,0,0,.73-.67c.24-.5-.36-1.24-.36-1.24A1.79,1.79,0,0,0,210.31,190.72Z" transform="translate(-20.8 -26.5)"/><path class="cls-27" d="M146.54,207.57c-.27,0-6.08,10.74-5.48,18a3.56,3.56,0,0,0,1.58,2.06,2.57,2.57,0,0,0,1.37.45h.36l6.23.21S155.24,213.29,146.54,207.57Z" transform="translate(-20.8 -26.5)"/><path class="cls-27" d="M156.08,204.27l-.42.39s-.84,1.61,2.32,1.74,8.11.37,5.75-1.92C163.73,204.48,158.83,203.34,156.08,204.27Z" transform="translate(-20.8 -26.5)"/><path class="cls-27" d="M174.42,208.5a7.69,7.69,0,0,0-1-.51l-1.64-.68c-3.54-1.46-8-2.83-8-2.83H156.5a61.16,61.16,0,0,0-8.77,2.44,6,6,0,0,0-1.19.65l1,20.6h0v0c.44,2.9.91,6.31,1.06,8.71.07,1-1.05,6.23-1.64,11.06l-2,11.54s1.18,4.78,29.36.75c.72-.1-1.79-21.54-1.6-22.88.13-.9.11-7.86.06-12.21l.78-4.39c.44-.32,1-.68,1.72-1.09,1.09-.63,2.46-1.35,4-2.1-.17-1-.3-1.86-.34-2.34A8.77,8.77,0,0,0,174.42,208.5Z" transform="translate(-20.8 -26.5)"/><path class="cls-27" d="M201.86,192.3s-11.62,11-14.16,12.36c-2.18,1.16-13,2.34-15.94,2.65l-.75.07c-3.11,4.23,1,14.36,2.73,13.24a49.55,49.55,0,0,1,5.46-3c6.72-3.37,15-9.46,16.6-10.34,2.43-1.36,10.09-10.72,10.09-10.72C205.49,195.13,201.86,192.3,201.86,192.3Z" transform="translate(-20.8 -26.5)"/><path class="cls-28" d="M479.28,421.39s-.09-1,2-2.33l-2.84-2.81a17.78,17.78,0,0,0-3.2,2.48C473.65,420.29,479.28,421.39,479.28,421.39Z" transform="translate(-20.8 -26.5)"/><path class="cls-28" d="M545.15,420.48s-.29-2.57.47-3.85l-3.46-.59s-1.87,2.87-1.71,4.54S545.15,420.48,545.15,420.48Z" transform="translate(-20.8 -26.5)"/><path class="cls-28" d="M485.8,431.39c0,1,.07,1.51-2.9,1.55s-5.83-3.5-7.82-6-4.6-3.68-3-5.36c.2-.21.42-.42.64-.63,1.55-1.49,3.39-3,3.63-3.26s2.94,3.26,2.94,3.26a6.79,6.79,0,0,0,.25,2.86c.48,1.06,1.24,4.88,2.64,5.52h0A16,16,0,0,1,485.8,431.39Z" transform="translate(-20.8 -26.5)"/><path class="cls-28" d="M554.06,428.62a102.37,102.37,0,0,0-10.69,0c-3.11.33-4.31-.15-4.09-2.38,0-.12,0-.24,0-.37.28-2.18,1.15-4.92,1.21-5.84s4-.43,4-.43,2.06,3,3.2,3.68,4.56,1.89,5.88,2.47l.31.12h0c1.4.47,3.75.54,4.09,1.28S556,428.65,554.06,428.62Z" transform="translate(-20.8 -26.5)"/><path class="cls-29" d="M554.06,428.62a102.37,102.37,0,0,0-10.69,0c-3.11.33-4.31-.15-4.09-2.38,0-.12,0-.24,0-.37.75-.52,6.14-.2,9.33.21a13.92,13.92,0,0,0,5.27-.21h0c1.4.47,3.75.54,4.09,1.28S556,428.65,554.06,428.62Z" transform="translate(-20.8 -26.5)"/><path class="cls-29" d="M485.9,431.36c0,1,0,1.54-3,1.58s-5.83-3.5-7.82-6-4.6-3.68-3-5.36c.2-.21.42-.42.64-.63.09.08,3.93,3.3,5.15,5.55,2,3.74,4.22,2.81,4.31,2.83h0A17.92,17.92,0,0,1,485.9,431.36Z" transform="translate(-20.8 -26.5)"/><path class="cls-30" d="M557.92,390.44c-3.08,5-12.21,29.08-12.21,29.08l-7.83-.54s5-16.82,7.48-23c1.86-4.61,4.54-6.94,1.89-8.13-2.24-1-15.7-5.88-21.42-8.73a17.69,17.69,0,0,1-1.77-1,3.82,3.82,0,0,1-.48-.34c-2.66-2.26,2.61-19,11.82-14,0,0,20.18,15.05,21.75,17.66S561,385.4,557.92,390.44Z" transform="translate(-20.8 -26.5)"/><path class="cls-30" d="M535,363.26S522.23,382.43,510.45,393c-3.33,3-6,5.45-10.82,9.28-2.53,2-7,6.28-10.63,9.81l-.15.15c-2.59,2.52-4.73,4.65-5.39,5.31l-.06.06-.07.07L481,420.19l-3.61-3.29a97.86,97.86,0,0,0,6.26-9.16c3.16-5.58,7.85-11.81,10.31-13.64,4.23-3.14,8.39-5.07,9.89-8s6.6-14.5,6.6-14.5.87-11.95,8.08-14.82C525.3,354.12,535,363.26,535,363.26Z" transform="translate(-20.8 -26.5)"/><path class="cls-28" d="M541,313.19a7,7,0,0,0-.76,1.86,16.23,16.23,0,0,0-.4,2,23,23,0,0,0-.22,2.56s-7.77-2-6.41-3.79.81-7.34.81-7.34S542.07,311.52,541,313.19Z" transform="translate(-20.8 -26.5)"/><path class="cls-25" d="M546,298.27s1.93,1.82.84,6.8c0,0,.29,4,.88,4.74s-1.68.89-1.94,1.38-.79,2.83-2.42,4.18-9.25-3.21-9.53-5.64-5.28-13,3.27-13.11S546,298.27,546,298.27Z" transform="translate(-20.8 -26.5)"/><path class="cls-31" d="M545.05,342.07c-.3.56-.64,1.15-1,1.76-1,1.67-2.22,3.55-3.68,5.73a17.53,17.53,0,0,0-1.06,1.67c-1.86,3.57-3.28,9.58-3.75,11.75-.11.51-.16.77-.16.77C525.07,364.32,514,358,514,358c6.56-7.41,9-13.05,9-13.05a22.7,22.7,0,0,0,1-7.07c.12-8.36,2.28-13.05,4.41-16.77a15,15,0,0,1,4.71-5.25l6.44,3.62c.81,2.35,3.48,4.91,6.21,10.62C547.85,334.28,547.58,337.34,545.05,342.07Z" transform="translate(-20.8 -26.5)"/><path class="cls-32" d="M547.1,303.28s1.37-10.38-8.81-8.91-5.4,13.05-4.18,16.82c0,0,0-5.77,4.92-5.77S545,304.33,547.1,303.28Z" transform="translate(-20.8 -26.5)"/><path class="cls-28" d="M538.3,303.92a1.4,1.4,0,0,0-2.5,1c.18,1.62,1.79,3.29,2.37,2.53A3.12,3.12,0,0,0,538.3,303.92Z" transform="translate(-20.8 -26.5)"/><path class="cls-32" d="M534.49,297.59s-2.83-2.94-5,.18,2.19,7.75,4.14,5.18A5.9,5.9,0,0,0,534.49,297.59Z" transform="translate(-20.8 -26.5)"/><path class="cls-33" d="M540.22,315.05a16.23,16.23,0,0,0-.4,2c-2.56-1.29-4.37-5-4.37-5a19.85,19.85,0,0,0,4.77,3Z" transform="translate(-20.8 -26.5)"/><path class="cls-34" d="M563.19,405a54.61,54.61,0,1,1,72.6,26.35A54.61,54.61,0,0,1,563.19,405Z" transform="translate(-20.8 -26.5)"/><path class="cls-34" d="M638.69,429.85l-46.15-98.76a54.6,54.6,0,0,1,46.15,98.76Z" transform="translate(-20.8 -26.5)"/><path class="cls-34" d="M563.2,405a54.62,54.62,0,0,1,15-65.47l44.85,96A54.63,54.63,0,0,1,563.2,405Z" transform="translate(-20.8 -26.5)"/><path class="cls-35" d="M575.07,399.42a41.5,41.5,0,1,1,55.17,20A41.5,41.5,0,0,1,575.07,399.42Z" transform="translate(-20.8 -26.5)"/><path class="cls-36" d="M607.83,399.43a8.37,8.37,0,0,0,2,.5,18.5,18.5,0,0,0,2.79.17,19.67,19.67,0,0,0,3.23-.31,16.7,16.7,0,0,0,3.35-.93L613.9,387.5l-1.15.26a53.18,53.18,0,0,1-6.1.91,16.7,16.7,0,0,1-5-.25,9.74,9.74,0,0,1-4-1.91,11.15,11.15,0,0,1-3-4.05,11.91,11.91,0,0,1-1.28-5.46,10.75,10.75,0,0,1,1.27-4.78,14.41,14.41,0,0,1,3.33-4.06,22.8,22.8,0,0,1,4.89-3.19l-2.69-5.77,2.86-1.33,2.74,5.87a30.36,30.36,0,0,1,8.26-1.95,26.28,26.28,0,0,1,8.21.54l-.34,6.58a10.49,10.49,0,0,0-2.42-.6,21.81,21.81,0,0,0-3.38-.23,26.82,26.82,0,0,0-4,.32,23.33,23.33,0,0,0-4.18,1l5.32,11.37a7.28,7.28,0,0,0,.77-.13,7.46,7.46,0,0,1,.78-.13,52.72,52.72,0,0,1,5.83-.75,14,14,0,0,1,4.56.38,8.82,8.82,0,0,1,3.49,1.81,10.37,10.37,0,0,1,2.58,3.58,12.82,12.82,0,0,1,1.3,5.21,11.54,11.54,0,0,1-.95,4.83,14.06,14.06,0,0,1-2.88,4.23,20.93,20.93,0,0,1-4.53,3.42l2.6,5.54-2.86,1.34-2.59-5.55a23.35,23.35,0,0,1-7.26,1.65,26,26,0,0,1-6.69-.42Zm17.46-9.9a4.41,4.41,0,0,0-3.24-2.7,17.14,17.14,0,0,0-5.86.27l5,10.81c2.18-1.15,3.59-2.44,4.21-3.87A5.26,5.26,0,0,0,625.29,389.53ZM600.9,378.72a4.47,4.47,0,0,0,3.63,2.75,22.53,22.53,0,0,0,6.42-.29l-5.08-10.87a11.06,11.06,0,0,0-4.8,3.84A4.57,4.57,0,0,0,600.9,378.72Z" transform="translate(-20.8 -26.5)"/><path class="cls-37" d="M646.23,424.93a54.62,54.62,0,0,0-45.09-96.47Z" transform="translate(-20.8 -26.5)"/><path class="cls-37" d="M623,435.48l-44.85-96a54.89,54.89,0,0,1,11.38-7.12c1-.46,2-.89,3-1.29l46.15,98.76c-1,.52-1.91,1-2.9,1.47A54.77,54.77,0,0,1,623,435.48Z" transform="translate(-20.8 -26.5)"/><path class="cls-32" d="M533,296.6a5,5,0,0,0-4.19-1.93c-2.88.07-6.26,4.54-5.16,10.84s-.69,13.75-6.49,20c0,0,10.29-6,11-14.36s3.64-8.48,3.64-8.48Z" transform="translate(-20.8 -26.5)"/><path class="cls-25" d="M560,357s2.75,0,3.4,0a3.38,3.38,0,0,0,1.48,0c.18-.14,1.46-2.47,1.91-3.05s3.49-5.74,3.19-5.69a10.64,10.64,0,0,0-4.91,3.54c-2.06,2.58-4.53,1.74-5.38,2.36S560,357,560,357Z" transform="translate(-20.8 -26.5)"/><path class="cls-38" d="M524.06,378.09s5.49-6.89,5.9-7.71c-.22.52-3,7.23-4.13,8.7A17.69,17.69,0,0,1,524.06,378.09Z" transform="translate(-20.8 -26.5)"/><path class="cls-39" d="M545.05,342.07c-.3.56-.64,1.15-1,1.76,0,0-3.58-9.77-4-12.19C540.07,331.64,543.37,338.45,545.05,342.07Z" transform="translate(-20.8 -26.5)"/><path class="cls-31" d="M561.11,353.9s-10.32-2-15.48-6.57c-1.36-1.2-7.18-21.12-7.18-21.12s-1.59-5-6-3.42-2.47,6.67-2.47,6.67,6.73,15.69,10.22,21.77c2.91,5,21.13,6.15,21.13,6.15Z" transform="translate(-20.8 -26.5)"/><polygon class="cls-31" points="511.56 289.93 512.95 288.06 519.28 291.62 519.42 294.77 511.56 289.93"/><path class="cls-28" d="M306.68,339.51s-1.62,1.59-2.18,1.51a11.2,11.2,0,0,0-1.95.36c-.52,0-2-.41-2.48-.18a16.3,16.3,0,0,1-1.75,1.29c-.45.14-1.39.31-1.26.69s1,.46,1,.46a.67.67,0,0,0-.36.55c0,.72.48.87.48.87s-.41.42-.33.72a1,1,0,0,0,.65.77,1.11,1.11,0,0,0,0,.84.88.88,0,0,0,.95.36c.21,1,.71.87,1.65.69a14,14,0,0,0,4.6-3.32,17,17,0,0,1,3.37-3Z" transform="translate(-20.8 -26.5)"/><path class="cls-40" d="M320.46,309.52a13.55,13.55,0,0,1-1.46,5c-1.34,2.61-1.34,6.27-1.53,7.51s-3.67,13.22-4,13.55-1.37.8-3.5,4.42-6.62,7-6.62,7l3.71,3.64s9.93-6.87,11.45-10.79c1.61-4.18,5.12-16.18,5.12-16.18S327.3,311.64,320.46,309.52Z" transform="translate(-20.8 -26.5)"/><rect class="cls-41" x="297.76" y="324.25" width="17.82" height="29.74" transform="translate(721.02 452.96) rotate(150)"/><path class="cls-42" d="M319.44,419a13.12,13.12,0,0,1-2,3.46c-.88.75-4.79,5.84-6.14,6.1s-4.05.43-4.16,1-.17,3.36,3.67,3.45,4.85,0,5.78-.92,4.6-3.63,5.61-3.61l-.12,4.8,1,0s1.1-5.93,1.89-7.06.08-5.37-1.84-7.15A2.66,2.66,0,0,0,319.44,419Z" transform="translate(-20.8 -26.5)"/><path class="cls-43" d="M311.3,428.55s4.25.58,6.06-.82,4.08-4.87,7.7-4.94c0,0,1.29,1.66-.83,5.44a47.38,47.38,0,0,0-1.14,5.06l-1,0,.12-4.8a20.39,20.39,0,0,0-6.12,4.37s-7.36,1.17-8.75-1.12a3.05,3.05,0,0,1-.42-2.27C307.25,428.33,311.3,428.55,311.3,428.55Z" transform="translate(-20.8 -26.5)"/><path class="cls-42" d="M327.53,348.89s4.5,5.46-1.14,15.21c0,0-.48,5-.58,6.86s-1.3,8.86-.66,12.26,2.77,8.49,2,13.37-4.41,18.93-3.71,22.54l-4-.1s-1.43-29.79-1.88-30.84a13.85,13.85,0,0,1-2-8c.21-4.62-4.53-23.57-4.51-28.82S327.53,348.89,327.53,348.89Z" transform="translate(-20.8 -26.5)"/><path class="cls-44" d="M322,419.09a13,13,0,0,1-1.92,3.5c-.86.77-4.65,6-6,6.24s-4,.53-4.13,1.1-.1,3.36,3.74,3.36,4.85-.1,5.76-1.06,4.51-3.74,5.52-3.74v4.8h1s1-6,1.73-7.1-.05-5.38-2-7.1A2.65,2.65,0,0,0,322,419.09Z" transform="translate(-20.8 -26.5)"/><path class="cls-45" d="M314.07,428.83s4.27.48,6-1,4-5,7.58-5.12c0,0,1.33,1.62-.7,5.46a46.47,46.47,0,0,0-1,5.08h-1v-4.8a20.48,20.48,0,0,0-6,4.51s-7.33,1.35-8.77-.91a3,3,0,0,1-.48-2.25C310,428.71,314.07,428.83,314.07,428.83Z" transform="translate(-20.8 -26.5)"/><path class="cls-44" d="M328.41,348.81s4.63,5.35-.78,15.23c0,0-.37,5-.42,6.87s-1.09,8.89-.36,12.27,3,8.43,2.28,13.32-3.95,19-3.17,22.62h-4s-2.14-29.75-2.6-30.79a13.83,13.83,0,0,1-2.19-7.9c.11-4.63-6.4-22.37-6.5-27.62S328.41,348.81,328.41,348.81Z" transform="translate(-20.8 -26.5)"/><path class="cls-40" d="M310.67,354.21s5.15,29.65,4,33.92a67.61,67.61,0,0,0,15.57-3.47s-3.43-11.6-2.27-17.76,3.77-9.51,2-15.73S310.67,354.21,310.67,354.21Z" transform="translate(-20.8 -26.5)"/><path class="cls-25" d="M285.2,339.67s-1.66.47-2.3-.28a5.66,5.66,0,0,0-2.07-1.19c-.48-.17-1.76-1.26-2-.66s2,1.9,2.42,2.26-2,.75-2.42,1.17.47,4.42,2.12,4,3.1-2,3.4-2.05a9.45,9.45,0,0,0,1.21-.29Z" transform="translate(-20.8 -26.5)"/><path class="cls-25" d="M279.21,340.77s-4.94,1.73-5.17,2.12-.13.65.34.51l4.83-1.53s-5.51,3-5.77,3.3,0,.69.29.64,5.88-2.75,5.88-2.75-5.13,2.84-5.28,3.14a.4.4,0,0,0,.55.51c.4-.18,5.31-2.55,5.31-2.55s-3.61,2.3-3.58,2.63.15.65,1.06,0,3.22-1.86,3.22-1.86Z" transform="translate(-20.8 -26.5)"/><path class="cls-44" d="M314.21,288.16a7.92,7.92,0,0,0-8.12,7.49,19.81,19.81,0,0,0,.68,3c.44,1.3-.62,5.21-.31,5.39a8.59,8.59,0,0,0,1.58.39s1.49,4.18,3,4.11a12.32,12.32,0,0,0,9.56-6.73C323.07,296.44,323.66,288.35,314.21,288.16Z" transform="translate(-20.8 -26.5)"/><path class="cls-46" d="M306.09,295.65a21.09,21.09,0,0,0,7.65,2.9c3.78.41,6.29,4.23,6.29,4.23s5.53-7.36.75-13S305.07,288.45,306.09,295.65Z" transform="translate(-20.8 -26.5)"/><path class="cls-45" d="M330,351.17c-5,5.46-18.79,4.66-19.36,3s-1.4-16.59-1.56-18.2a13.8,13.8,0,0,1,.15-2.46,8.15,8.15,0,0,0,0-2,2.23,2.23,0,0,0-.53-1.24c-1.27-1.33-3.12-4.11-2.65-6s5.56-8.32,7.12-10.09,5.72-5.72,5.72-5.72c5.93-.1,7.7,12.17,6.76,14.92s-3.69,14.41-2.13,16.23S330,351.17,330,351.17Z" transform="translate(-20.8 -26.5)"/><path class="cls-44" d="M319.36,308.5a18.18,18.18,0,0,1,0-4.71s-7,3.25-5.82,4.13a2.24,2.24,0,0,1,.68,1.2,13.77,13.77,0,0,1,.31,3.7l-2.33,2.78C310.14,318.43,319.53,309.43,319.36,308.5Z" transform="translate(-20.8 -26.5)"/><path class="cls-25" d="M315.3,298.33a1.16,1.16,0,0,1,2-.89c1.22,1-.28,4.48-1.27,4.16S315.3,299.08,315.3,298.33Z" transform="translate(-20.8 -26.5)"/><path class="cls-33" d="M313.54,307.92a2.89,2.89,0,0,1,.73,1.36,11.67,11.67,0,0,0,4.07-4.32C316.85,306.79,313.54,307.92,313.54,307.92Z" transform="translate(-20.8 -26.5)"/><path class="cls-45" d="M323.94,313s-3.48-2.76-5.92-.9-2.88,3.7-3.62,4.78-9.39,10.79-9.83,11S297,332,293,334s-9.56,5.46-9.56,5.46l1.79,3.58s19.23-8,22.77-10.55,13.52-10.64,13.52-10.64S327.82,318.88,323.94,313Z" transform="translate(-20.8 -26.5)"/><path class="cls-47" d="M298.27,343.42s2.38-1.22,3.2-.86,0,.84,0,.84.83-.5,1.27.11-.56,1.11-.56,1.11a.75.75,0,0,1,.94.55c.21.75-.72,1-.72,1s1.17.26.58,1.07a4.13,4.13,0,0,1-2.92,1.43s-.47,0-.63-.77a1,1,0,0,1-1-1.29s-1.1-.73-.34-1.54C298.09,345.07,297,344.22,298.27,343.42Z" transform="translate(-20.8 -26.5)"/><path class="cls-46" d="M314.38,298.65s2.17,9.48-.84,11.32c0,0,6.4-1.73,9.31-5.43,0,0,3.22-15.36-6.79-17.08S314.38,298.65,314.38,298.65Z" transform="translate(-20.8 -26.5)"/><path class="cls-46" d="M318.71,324.15c-.23.25-7.71,8.12-9.45,9.4a8.15,8.15,0,0,0,0-2Z" transform="translate(-20.8 -26.5)"/><path class="cls-34" d="M347.37,229.44a53.86,53.86,0,1,1,53.39,54.33A53.87,53.87,0,0,1,347.37,229.44Z" transform="translate(-20.8 -26.5)"/><path class="cls-34" d="M404,283.71l.94-107.53A53.86,53.86,0,0,1,404,283.71Z" transform="translate(-20.8 -26.5)"/><path class="cls-34" d="M347.37,229.44a53.9,53.9,0,0,1,41.18-51.88l-.92,104.49A53.9,53.9,0,0,1,347.37,229.44Z" transform="translate(-20.8 -26.5)"/><path class="cls-35" d="M360.3,229.56a40.94,40.94,0,1,1,40.57,41.29A40.93,40.93,0,0,1,360.3,229.56Z" transform="translate(-20.8 -26.5)"/><path class="cls-36" d="M413.46,221a8.52,8.52,0,0,0-1.55-1.33,19.92,19.92,0,0,0-2.39-1.38,20.46,20.46,0,0,0-3-1.15,17.21,17.21,0,0,0-3.36-.65l-.32,12.37,1.13.27a51.76,51.76,0,0,1,5.78,1.88,16.87,16.87,0,0,1,4.34,2.44,9.51,9.51,0,0,1,2.69,3.45,11,11,0,0,1,.86,4.9,11.9,11.9,0,0,1-1.27,5.38,10.7,10.7,0,0,1-3.23,3.65,14.2,14.2,0,0,1-4.72,2.12,22.51,22.51,0,0,1-5.73.67l-.16,6.27-3.11-.08.16-6.39a30.06,30.06,0,0,1-8.14-1.92,25.68,25.68,0,0,1-7-4.09l3.2-5.66a10.81,10.81,0,0,0,1.87,1.6,22.31,22.31,0,0,0,2.89,1.69,27.87,27.87,0,0,0,3.64,1.47,23.39,23.39,0,0,0,4.13.94l.32-12.37c-.24-.09-.49-.16-.74-.23a7.15,7.15,0,0,1-.74-.23,50.09,50.09,0,0,1-5.49-1.9,13.83,13.83,0,0,1-3.85-2.34,8.83,8.83,0,0,1-2.29-3.14,10.1,10.1,0,0,1-.69-4.3,12.56,12.56,0,0,1,1.14-5.17,11.41,11.41,0,0,1,3-3.84,13.71,13.71,0,0,1,4.4-2.46,20,20,0,0,1,5.5-1l.15-6,3.11.08-.15,6a23.23,23.23,0,0,1,7.13,1.74,26.32,26.32,0,0,1,5.72,3.31Zm-19.77,1a4.34,4.34,0,0,0,1.67,3.81,17.11,17.11,0,0,0,5.29,2.34l.31-11.77a8.67,8.67,0,0,0-5.43,1.57A5.19,5.19,0,0,0,393.69,222.07Zm16.77,20.28a4.42,4.42,0,0,0-2-4,22.43,22.43,0,0,0-5.79-2.57l-.31,11.84a11,11,0,0,0,5.93-1.29A4.5,4.5,0,0,0,410.46,242.35Z" transform="translate(-20.8 -26.5)"/><path class="cls-37" d="M412.77,282.54a53.87,53.87,0,0,0,.92-105Z" transform="translate(-20.8 -26.5)"/><path class="cls-37" d="M387.63,282.05l.92-104.49a53.88,53.88,0,0,1,13.16-1.5c1.07,0,2.14.05,3.2.12L404,283.71q-1.59.07-3.21.06A53.63,53.63,0,0,1,387.63,282.05Z" transform="translate(-20.8 -26.5)"/><path class="cls-44" d="M373.91,282.08A3.79,3.79,0,0,1,374,280a10.49,10.49,0,0,0,.91-3.05c-.09-.26-2.81-1.62-3.81-2.37-.71-.53-5.9-5.81-6-5.44s-.17,3.08,2.25,6.28a27.23,27.23,0,0,1,3.87,8C371.64,284.57,373.91,282.08,373.91,282.08Z" transform="translate(-20.8 -26.5)"/><path class="cls-44" d="M423.34,282.48s-.73-2.28-.33-3.2,2.13-2,4.45-3.06c2.15-1,7.08-3.84,7.32-3.62s.27,1.67-3.14,4.6-4.63,3.61-4.59,5.08S423.34,282.48,423.34,282.48Z" transform="translate(-20.8 -26.5)"/><path class="cls-44" d="M402.64,309.83s-8.25,5.65-7.84,2.2a22.72,22.72,0,0,0-.48-7s8.18-3.56,7.81-1a10.34,10.34,0,0,0-.08,1.85,17.77,17.77,0,0,0,.2,2.06A18.59,18.59,0,0,0,402.64,309.83Z" transform="translate(-20.8 -26.5)"/><path class="cls-24" d="M429.19,427.23a26.26,26.26,0,0,1,3.59,2.4c1,1,5.72.48,6.71,3.08s-3.42,3.91-8.19,2.51a26.66,26.66,0,0,1-7.21-3.16c-1.69-.82.11-5.13.11-5.13Z" transform="translate(-20.8 -26.5)"/><path class="cls-24" d="M381.17,420.62a32.34,32.34,0,0,0,.32,4c.29,2,2.7,6.15,2.52,7.73s-3.11,3.95-6.34.13c-2.4-2.84-1.59-7.48-2.35-8.79s-.59-4.23,1.15-6.09S381.17,420.62,381.17,420.62Z" transform="translate(-20.8 -26.5)"/><path class="cls-27" d="M415.78,353.31s12.61,23.89,13,27.24.93,39.26,1.46,41.6a3.48,3.48,0,0,1-.79,3.46s-4.21,1.68-5.47-.22-.87-3-.87-3-4.17-28.87-4.71-33.61-14-25-15.18-23.18-3.44,19.27-4.46,21.78-16.15,31.94-17.31,31.94-5.53-.67-4.85-4.13,10.52-29,10.52-31.89,3.08-30,3.87-33.66S415.78,353.31,415.78,353.31Z" transform="translate(-20.8 -26.5)"/><path class="cls-47" d="M429.17,427.52l.11-1.49-5.19-.42.13,1.55s.13.84,2.59,1S429.17,427.52,429.17,427.52Z" transform="translate(-20.8 -26.5)"/><path class="cls-47" d="M381.49,419.3s-.42,1.76-.52,2.13-3.14.74-4-.89a2.92,2.92,0,0,1-.37-2.74,3.73,3.73,0,0,1,.33-1.07Z" transform="translate(-20.8 -26.5)"/><path class="cls-24" d="M430.61,425.61a11,11,0,0,1-7.3.45,6.53,6.53,0,0,1-.16-3.69s2.86,1.47,7.06-.71A8.31,8.31,0,0,1,430.61,425.61Z" transform="translate(-20.8 -26.5)"/><path class="cls-48" d="M394.32,356.67c.08-.91.1-1.22.1-1.22l-.35-.08s0,.35-.12,1.26Z" transform="translate(-20.8 -26.5)"/><path class="cls-24" d="M379,412.3l1.21-2.61.33.2-1.21,2.61Zm2.41-5.22,1.2-2.62.33.2-1.2,2.62Zm2.4-5.24c.39-.88.79-1.76,1.18-2.63l.33.2L384.12,402Zm2.35-5.26c.42-.93.81-1.82,1.16-2.64l.34.19c-.36.82-.75,1.71-1.17,2.65Zm2.3-5.29c.44-1,.81-1.94,1.09-2.67l.34.17c-.28.74-.65,1.64-1.09,2.69Zm2-5.41c.18-.78.38-1.74.57-2.87l.36.08c-.19,1.14-.38,2.11-.57,2.9Zm1-5.78c.13-.9.26-1.88.39-2.92l.37.07c-.13,1-.27,2-.4,2.92Zm.75-5.84c.11-.93.23-1.92.34-2.93l.37.05c-.12,1-.23,2-.34,2.93Zm.65-5.87q.15-1.42.3-2.94l.37.05q-.15,1.51-.3,2.94Zm.58-5.88.27-2.94.37,0c-.09,1-.18,2-.27,2.95Z" transform="translate(-20.8 -26.5)"/><path class="cls-48" d="M377.54,416.31s.22-.46.59-1.27l-.32-.21-.6,1.27Z" transform="translate(-20.8 -26.5)"/><path class="cls-24" d="M382.53,419.47s-5.72.06-6.6-3.85a9.21,9.21,0,0,1,1.35-2.68s1,3.18,6.23,3.49A11.81,11.81,0,0,1,382.53,419.47Z" transform="translate(-20.8 -26.5)"/><path class="cls-44" d="M395.89,288.16s7.85-2.77,8.22,6.94-.72,11-3.9,11.69-6.7-.37-9.49-7.7C388.06,292.1,390.94,288.74,395.89,288.16Z" transform="translate(-20.8 -26.5)"/><path class="cls-49" d="M428.1,299.91c-.6,1.48-7,11.09-7.76,12.84s-3.88,6.23-4.15,6.88-1.16,8-2,10.1,0,16.67.29,19a19.78,19.78,0,0,0,1.28,4.56,218.47,218.47,0,0,1-25.83,3.8,67.21,67.21,0,0,0,.68-8.51c-.17-2.35-3-17.06-4.22-19.35s-12.23-18.47-12.67-19.12-5.14-8.2-5.35-9.95,1.07-15.55,1.08-17.4c0-2.3,0-2,0-2l4.95.37s.35,7.83.68,10.05,2.13,9.26,2.46,10.49,8.11,12,9.5,12a23.7,23.7,0,0,0,5.27-1.68c1.18-.48,2.2-.92,2.6-1.11,1.07-.49,6.87-2.05,8.89-1.85,0,0,.48.07,1.21.14,1.67.17,4.65.36,6.17-.14,2.18-.71,3.33-2.45,4.64-3.88s5.63-6.41,6-7.44.56-10.26.68-12.86a19.79,19.79,0,0,0,.07-3.28c-.06-.33,5.54-1.58,5.43-.65s-.14,6.8.1,10.14S428.7,298.44,428.1,299.91Z" transform="translate(-20.8 -26.5)"/><path class="cls-50" d="M391.56,301.06s-.78-1.38-.06-1.88a.83.83,0,0,1,1.2.2l.77-.13s-1.53-2.87.9-3.4,7.53-1,8.84-1.94c0,0,.53,2.22.58,2.65s.36-.1.36-.1.47-7-4.06-9.39-9.45.45-10.26,3.13S388.81,295.52,391.56,301.06Z" transform="translate(-20.8 -26.5)"/><path class="cls-44" d="M391.66,297.42s-.86-.68-1,0,1.47,3.75,1.89,3.76S392.69,298.25,391.66,297.42Z" transform="translate(-20.8 -26.5)"/><path class="cls-33" d="M402.25,307.92c-5,.91-6.81-2-6.81-2a6.51,6.51,0,0,0,6.62.19A15.19,15.19,0,0,0,402.25,307.92Z" transform="translate(-20.8 -26.5)"/><path class="cls-44" d="M402.11,321.64c-6,.36-9.76-9.65-9.76-9.65,1.18-.48,2.2-.92,2.6-1.11,1.07-.49,6.8-2.11,8.89-1.85,0,0,.48.07,1.21.14C405.05,309.17,408.09,321.27,402.11,321.64Z" transform="translate(-20.8 -26.5)"/></g></g></svg>