<svg id="Слой_1" data-name="Слой 1" xmlns="http://www.w3.org/2000/svg" viewBox="0 0 2000 2000"><defs><style>.cls-1{fill:#fff;}.cls-2{fill:#ffeeea;}.cls-3{fill:#ffc1ae;}.cls-4{fill:#ffd5cb;}.cls-5{fill:#ffd4cb;}.cls-6{fill:#ffe4e6;}.cls-7{fill:#ffe4e5;}.cls-8{opacity:0.5;}.cls-9{fill:#ffefea;}.cls-10{fill:#e847ff;}.cls-11{fill:#705023;}.cls-12{fill:#43ba30;}.cls-13{fill:#5f5525;}.cls-14{fill:#3cba43;}.cls-15{fill:#1b1464;}.cls-16{fill:#46255f;}.cls-17{fill:#2f0e54;}.cls-18{fill:#3fa9f5;}.cls-19{fill:#f2a374;}.cls-20{fill:#f2bc9c;}.cls-21{fill:#cb1ce6;}.cls-22{fill:#ff2e57;}.cls-23{fill:#ff5862;}.cls-24{fill:#130e47;}.cls-25{fill:#a14f2a;}.cls-26{fill:#ffa658;}.cls-27{fill:#ffc371;}.cls-28{fill:#874223;}</style></defs><title>tax</title><rect class="cls-1" width="2000" height="2000"/><path class="cls-2" d="M949.06,1689.06c113.73-1.08,802.86,139.62,850.75-432.72S1594.89,636.57,1445,604.82C1100.73,531.92,804.6,183,463.08,370.69,329,444.36,434.72,763.05,319.9,1089c-84.06,238.61,70.78,492.28,174.24,552.64S949.06,1689.06,949.06,1689.06Z"/><rect class="cls-3" x="1426.82" y="490.57" width="306.24" height="798.27"/><rect class="cls-4" x="1444.17" y="513.03" width="34.71" height="798.27"/><rect class="cls-4" x="1502.11" y="513.03" width="34.71" height="798.27"/><rect class="cls-4" x="1560.04" y="513.03" width="34.71" height="798.27"/><rect class="cls-4" x="1617.97" y="513.03" width="34.71" height="798.27"/><rect class="cls-5" x="664.85" y="285.65" width="280.92" height="871.05"/><rect class="cls-6" x="680.77" y="310.16" width="31.84" height="871.05"/><rect class="cls-6" x="733.91" y="310.16" width="31.84" height="871.05"/><rect class="cls-6" x="787.05" y="310.16" width="31.84" height="871.05"/><rect class="cls-6" x="840.19" y="310.16" width="31.84" height="871.05"/><rect class="cls-7" x="442.45" y="380.72" width="255.29" height="592.97"/><rect class="cls-3" x="462.79" y="406.15" width="31.19" height="60.15"/><rect class="cls-3" x="515.03" y="406.15" width="31.19" height="60.15"/><rect class="cls-3" x="564.16" y="406.15" width="31.19" height="60.15"/><rect class="cls-3" x="462.79" y="484.42" width="31.19" height="60.15"/><rect class="cls-3" x="515.03" y="484.42" width="31.19" height="60.15"/><rect class="cls-3" x="564.16" y="484.42" width="31.19" height="60.15"/><rect class="cls-3" x="462.79" y="562.69" width="31.19" height="60.15"/><rect class="cls-3" x="515.03" y="562.69" width="31.19" height="60.15"/><rect class="cls-3" x="564.16" y="562.69" width="31.19" height="60.15"/><rect class="cls-3" x="462.79" y="640.96" width="31.19" height="60.15"/><rect class="cls-3" x="515.03" y="640.96" width="31.19" height="60.15"/><rect class="cls-3" x="564.16" y="640.96" width="31.19" height="60.15"/><rect class="cls-3" x="613.99" y="406.15" width="31.19" height="60.15"/><rect class="cls-3" x="613.99" y="484.42" width="31.19" height="60.15"/><rect class="cls-3" x="613.99" y="562.69" width="31.19" height="60.15"/><rect class="cls-3" x="613.99" y="640.96" width="31.19" height="60.15"/><path class="cls-4" d="M510.55,1630.55c-48.94-26.34-472.23-430-400.49-682.55s306.59,115.54,306.59,115.54S299,732.52,370.79,628.25s280.8,18.56,320.32,437.92,2.22,579.61,2.22,579.61S611.24,1684.75,510.55,1630.55Z"/><g class="cls-8"><path class="cls-1" d="M176.51,894.87q46.71,86.49,93.89,172.71l47.19,86.22,47.3,86.16,47.38,86.12,47.52,86,47.55,86L555,1584.08l10.18,18.35-2.61-20.83q-14.76-117.94-30-235.84l-15.2-117.9L502.1,1110,486.61,992.13,470.94,874.29q-15.82-117.81-32.08-235.58,13.49,118.11,27.78,236.12l14.26,118,14.44,118,14.61,118,14.73,118q14.87,117.93,29.86,235.85l7.58-2.48-47.84-85.86-48-85.8-48-85.77L370.19,1237,322,1151.37l-48.32-85.59Q225.25,980.24,176.51,894.87Z"/></g><g class="cls-8"><path class="cls-1" d="M295.2,942.88c-2.31,11-4.33,22.07-6.31,33.13-1,5.53-1.91,11.07-2.87,16.61s-1.87,11.07-2.77,16.62q-2.67,16.62-5.14,33.28t-4.74,33.35l5.31-3.37-18.74-6q-9.39-3-18.79-5.87-18.79-5.82-37.68-11.37-9.43-2.77-18.91-5.47l-19-5.29c-12.68-3.44-25.35-6.87-38.15-9.92,12.2,4.93,24.52,9.46,36.85,14l18.53,6.66q9.28,3.27,18.58,6.48,18.61,6.4,37.31,12.54,9.34,3.07,18.72,6.08l18.75,6,4.68,1.49.63-4.85q2.17-16.71,4.14-33.43t3.74-33.47c.58-5.58,1.15-11.17,1.67-16.76s1.11-11.18,1.58-16.78C293.6,965.31,294.54,954.12,295.2,942.88Z"/></g><g class="cls-8"><path class="cls-1" d="M392,1079.39c-2.43,14.07-4.51,28.17-6.6,42.28s-4,28.22-5.8,42.36-3.55,28.27-5.3,42.42-3.3,28.3-4.86,42.46l5-3.59-21.32-4.56-21.34-4.45L310.41,1232l-10.69-2.16-10.7-2.06c-7.15-1.36-14.28-2.78-21.43-4.1l-21.45-3.94c-14.33-2.5-28.66-5-43.06-7.21,14,4,28.11,7.58,42.19,11.21l21.17,5.27c7.06,1.75,14.14,3.41,21.2,5.11l10.61,2.54,10.63,2.45,21.25,4.89,21.28,4.76,21.3,4.64,4.49,1,.49-4.57c1.51-14.16,3-28.33,4.37-42.51s2.76-28.37,3.93-42.57,2.36-28.41,3.43-42.62S391.4,1093.65,392,1079.39Z"/></g><g class="cls-8"><path class="cls-1" d="M517.27,660.26c-6,8.9-11.65,18-17.28,27.09s-11.07,18.3-16.45,27.54-10.67,18.52-15.86,27.86-10.32,18.71-15.39,28.12l6-1.36L448,762.31l-10.29-7.13q-10.31-7.08-20.73-14T396,727.5c-7.06-4.47-14.15-8.9-21.37-13.13,6.31,5.51,12.75,10.82,19.24,16.09s13,10.45,19.61,15.57,13.23,10.18,19.88,15.21l10,7.49,10.07,7.41,3.72,2.73,2.26-4.09q7.74-14,15.3-28.16c5.05-9.42,10-18.91,14.84-28.42s9.61-19.1,14.25-28.74S513.05,670.13,517.27,660.26Z"/></g><g class="cls-8"><path class="cls-1" d="M603.85,863.61c-10.64,11.23-21,22.72-31.27,34.23-5.11,5.78-10.27,11.54-15.35,17.35L542,932.65,527,950.24q-7.53,8.79-15,17.65-14.93,17.68-29.64,35.57l6.46.22-10.93-14.87-11-14.78-11.05-14.78-11.17-14.68c-3.71-4.91-7.48-9.77-11.25-14.63s-7.52-9.74-11.35-14.55c-7.62-9.67-15.28-19.31-23.14-28.8C405.44,897,412.21,907.3,419,917.54c3.39,5.14,6.87,10.21,10.31,15.32s6.89,10.19,10.4,15.24l10.48,15.19,10.6,15.1,10.62,15.08,10.73,15,3.05,4.28,3.4-4.07q14.85-17.76,29.55-35.65,7.35-8.94,14.6-18l14.53-18,14.39-18.15c4.78-6.06,9.49-12.18,14.24-18.27C585.36,888.39,594.76,876.13,603.85,863.61Z"/></g><circle class="cls-3" cx="1060.75" cy="1221.05" r="474.71" transform="translate(-552.72 1107.7) rotate(-45)"/><circle class="cls-9" cx="1060.75" cy="1221.05" r="397.94" transform="translate(-552.72 1107.7) rotate(-45)"/><path class="cls-4" d="M1209.12,961.71c-3.11-1.79-4.67-4.92-3.48-7l30.56-52.92c1.19-2.06,4.68-2.28,7.79-.48s4.66,4.92,3.47,7l-30.55,52.92C1215.72,963.29,1212.23,963.51,1209.12,961.71Z"/><path class="cls-4" d="M1318.91,1070.64c-1.8-3.11-1.58-6.6.48-7.79l52.92-30.55c2.07-1.19,5.19.36,7,3.48s1.58,6.59-.48,7.78l-52.93,30.56C1323.83,1075.31,1320.7,1073.75,1318.91,1070.64Z"/><path class="cls-4" d="M1359.52,1219.87c0-3.59,1.93-6.5,4.31-6.5h61.11c2.39,0,4.32,2.91,4.32,6.5s-1.93,6.51-4.32,6.51h-61.11C1361.45,1226.38,1359.52,1223.46,1359.52,1219.87Z"/><path class="cls-4" d="M1320.08,1369.42c1.8-3.11,4.92-4.67,7-3.48L1380,1396.5c2.06,1.19,2.28,4.67.48,7.79s-4.92,4.66-7,3.47l-52.92-30.55C1318.5,1376,1318.28,1372.53,1320.08,1369.42Z"/><path class="cls-4" d="M1211.15,1479.21c3.11-1.8,6.6-1.58,7.79.48l30.55,52.92c1.2,2.06-.36,5.19-3.47,7s-6.6,1.58-7.79-.48l-30.56-52.92C1206.48,1484.13,1208,1481,1211.15,1479.21Z"/><path class="cls-4" d="M1061.92,1519.82c3.59,0,6.5,1.93,6.5,4.32v61.1c0,2.39-2.91,4.32-6.5,4.32s-6.5-1.93-6.5-4.32v-61.1C1055.42,1521.75,1058.33,1519.82,1061.92,1519.82Z"/><path class="cls-4" d="M912.37,1480.38c3.12,1.8,4.67,4.92,3.48,7l-30.55,52.92c-1.19,2.06-4.68,2.28-7.79.48s-4.67-4.92-3.48-7l30.55-52.93C905.78,1478.8,909.26,1478.58,912.37,1480.38Z"/><path class="cls-4" d="M802.59,1371.45c1.79,3.11,1.57,6.6-.49,7.79l-52.92,30.55c-2.06,1.2-5.19-.36-7-3.47s-1.58-6.6.49-7.79L795.6,1368C797.66,1366.78,800.79,1368.34,802.59,1371.45Z"/><path class="cls-4" d="M762,1222.22c0,3.59-1.93,6.5-4.31,6.5H696.55c-2.38,0-4.31-2.91-4.31-6.5s1.93-6.51,4.31-6.51h61.11C760,1215.71,762,1218.63,762,1222.22Z"/><path class="cls-4" d="M801.41,1072.67c-1.79,3.12-4.92,4.67-7,3.48L741.5,1045.6c-2.06-1.19-2.28-4.68-.48-7.79s4.92-4.67,7-3.48l52.92,30.55C803,1066.08,803.21,1069.56,801.41,1072.67Z"/><path class="cls-4" d="M910.34,962.89c-3.11,1.79-6.6,1.58-7.79-.49L872,909.48c-1.19-2.06.36-5.19,3.47-7s6.6-1.58,7.79.49l30.56,52.92C915,958,913.45,961.09,910.34,962.89Z"/><path class="cls-4" d="M1059.57,922.27c-3.59,0-6.5-1.93-6.5-4.31V856.85c0-2.38,2.91-4.31,6.5-4.31s6.51,1.93,6.51,4.31V918C1066.08,920.34,1063.17,922.27,1059.57,922.27Z"/><path class="cls-4" d="M1060.67,1220l-4.21,3.29a8.21,8.21,0,0,1-11.52-1.42L905.86,1043.63a8.22,8.22,0,0,1,1.42-11.53l4.21-3.28a8.21,8.21,0,0,1,11.52,1.42l139.08,178.21A8.21,8.21,0,0,1,1060.67,1220Z"/><path class="cls-4" d="M1055.3,1223.6l-.59-.69a8,8,0,0,1,.82-11.24l245.21-211.6a8,8,0,0,1,11.24.83l.6.69a8,8,0,0,1-.83,11.24l-245.21,211.6A8,8,0,0,1,1055.3,1223.6Z"/><path class="cls-4" d="M1084.42,1221.05a23.68,23.68,0,1,1-23.67-23.67A23.67,23.67,0,0,1,1084.42,1221.05Z"/><polygon class="cls-10" points="1109.05 773.14 1109.05 1136.27 1582.07 1146.9 1582.07 773.14 1109.05 773.14"/><path class="cls-11" d="M1109.05,773.14l1,363.13-1-1,236.52,5,236.51,5.16-1.53,1.5.24-373.77,1.25,1.25Zm0,0,473-1.26h1.26v1.26l.24,373.77v1.53l-1.53,0-236.5-5.47-236.5-5.62-1,0v-1Z"/><polygon class="cls-6" points="1145.98 828.43 1145.98 878.94 1188.08 878.94 1188.08 825.77 1145.98 828.43"/><polygon class="cls-6" points="1204.68 828.43 1204.68 878.94 1246.78 878.94 1246.78 825.77 1204.68 828.43"/><polygon class="cls-6" points="1305.48 828.43 1305.48 878.94 1263.38 878.94 1263.38 825.77 1305.48 828.43"/><polygon class="cls-6" points="1367.42 876.28 1367.42 825.77 1325.32 825.77 1325.32 878.94 1367.42 876.28"/><polygon class="cls-6" points="1543.11 876.28 1543.11 825.77 1501.01 825.77 1501.01 878.94 1543.11 876.28"/><polygon class="cls-6" points="1426.52 828.43 1426.52 878.94 1384.42 878.94 1384.42 825.77 1426.52 828.43"/><polygon class="cls-6" points="1484.82 828.43 1484.82 878.94 1442.71 878.94 1442.71 825.77 1484.82 828.43"/><polygon class="cls-6" points="1145.98 902.87 1145.98 953.37 1188.08 953.37 1188.08 900.21 1145.98 902.87"/><polygon class="cls-6" points="1204.68 902.87 1204.68 953.37 1246.78 953.37 1246.78 900.21 1204.68 902.87"/><polygon class="cls-6" points="1305.48 902.87 1305.48 953.37 1263.38 953.37 1263.38 900.21 1305.48 902.87"/><polygon class="cls-12" points="1367.42 950.72 1367.42 900.21 1325.32 900.21 1325.32 953.37 1367.42 950.72"/><polygon class="cls-6" points="1543.11 950.72 1543.11 900.21 1501.01 900.21 1501.01 953.37 1543.11 950.72"/><polygon class="cls-6" points="1426.52 902.87 1426.52 953.37 1384.42 953.37 1384.42 900.21 1426.52 902.87"/><polygon class="cls-6" points="1484.82 902.87 1484.82 953.37 1442.71 953.37 1442.71 900.21 1484.82 902.87"/><polygon class="cls-6" points="1145.98 978.9 1145.98 1029.4 1188.08 1029.4 1188.08 976.24 1145.98 978.9"/><polygon class="cls-6" points="1204.68 978.9 1204.68 1029.4 1246.78 1029.4 1246.78 976.24 1204.68 978.9"/><polygon class="cls-6" points="1305.48 978.9 1305.48 1029.4 1263.38 1029.4 1263.38 976.24 1305.48 978.9"/><polygon class="cls-6" points="1367.42 1026.75 1367.42 976.24 1325.32 976.24 1325.32 1029.4 1367.42 1026.75"/><polygon class="cls-6" points="1543.11 1026.75 1543.11 976.24 1501.01 976.24 1501.01 1029.4 1543.11 1026.75"/><polygon class="cls-6" points="1426.52 978.9 1426.52 1029.4 1384.42 1029.4 1384.42 976.24 1426.52 978.9"/><polygon class="cls-6" points="1484.82 978.9 1484.82 1029.4 1442.71 1029.4 1442.71 976.24 1484.82 978.9"/><polygon class="cls-6" points="1145.98 1053.33 1145.98 1103.84 1188.08 1103.84 1188.08 1050.67 1145.98 1053.33"/><polygon class="cls-6" points="1204.68 1053.33 1204.68 1103.84 1246.78 1103.84 1246.78 1050.67 1204.68 1053.33"/><polygon class="cls-6" points="1305.48 1053.33 1305.48 1103.84 1263.38 1103.84 1263.38 1050.67 1305.48 1053.33"/><polygon class="cls-6" points="1367.42 1101.18 1367.42 1050.67 1325.32 1050.67 1325.32 1103.84 1367.42 1101.18"/><polygon class="cls-6" points="1543.11 1101.18 1543.11 1050.67 1501.01 1050.67 1501.01 1103.84 1543.11 1101.18"/><polygon class="cls-6" points="1426.52 1053.33 1426.52 1103.84 1384.42 1103.84 1384.42 1050.67 1426.52 1053.33"/><polygon class="cls-6" points="1484.82 1053.33 1484.82 1103.84 1442.71 1103.84 1442.71 1050.67 1484.82 1053.33"/><rect class="cls-6" x="1515.79" y="800.78" width="12.65" height="13.29"/><rect class="cls-6" x="1457.61" y="800.78" width="12.65" height="13.29"/><rect class="cls-6" x="1398.93" y="800.78" width="12.65" height="13.29"/><rect class="cls-6" x="1340.24" y="800.78" width="12.65" height="13.29"/><rect class="cls-6" x="1278.02" y="800.78" width="12.65" height="13.29"/><rect class="cls-6" x="1219.33" y="800.78" width="12.65" height="13.29"/><rect class="cls-6" x="1160.14" y="800.78" width="12.65" height="13.29"/><path class="cls-13" d="M1199,785.25a80.86,80.86,0,0,1-1.56-11c-.3-3.65-.43-7.3-.44-10.95s.14-7.3.43-11a79.7,79.7,0,0,1,1.57-11,78.22,78.22,0,0,1,1.58,11q.43,5.48.42,11t-.43,10.95A79.34,79.34,0,0,1,1199,785.25Z"/><path class="cls-13" d="M1299.64,745.17a66.84,66.84,0,0,1,1.57,10q.43,5,.43,10c0,3.34-.13,6.68-.43,10a66.84,66.84,0,0,1-1.57,10,66.84,66.84,0,0,1-1.57-10c-.3-3.34-.43-6.68-.43-10s.14-6.68.43-10A66.84,66.84,0,0,1,1299.64,745.17Z"/><path class="cls-13" d="M1405.9,741.44a79.7,79.7,0,0,1,1.57,11q.43,5.48.43,11t-.43,10.95a79.34,79.34,0,0,1-1.57,11,77.84,77.84,0,0,1-1.57-11c-.3-3.65-.43-7.3-.43-10.95s.14-7.3.43-11A79.7,79.7,0,0,1,1405.9,741.44Z"/><path class="cls-13" d="M1510.29,748a58.16,58.16,0,0,1,1.57,9.32c.29,3.11.43,6.21.43,9.32s-.13,6.22-.42,9.32a56.92,56.92,0,0,1-1.58,9.32,58,58,0,0,1-1.57-9.32q-.43-4.65-.43-9.32c0-3.11.14-6.21.44-9.32A59.27,59.27,0,0,1,1510.29,748Z"/><polygon class="cls-14" points="614.09 532.19 633.66 1016.88 1029.82 1009.6 1043.78 505.16 614.09 532.19"/><path class="cls-11" d="M614.09,532.19l20.77,484.64-1.22-1.16,396.15-7.55-1.45,1.44,7.09-252.22,7.24-252.21,1.18,1.14Zm0,0,429.62-28.14,1.21-.08,0,1.22-6.72,252.23-6.87,252.22,0,1.42-1.41,0-396.17,7-1.18,0,0-1.17Z"/><path class="cls-1" d="M659.65,653.64l7.7,165.71,7.34,164.83-1.9-1.81,82.49-1,82.49-.87,165-1.55-2.47,2.49.1-174.77.18-87.38.26-87.39,2.07,1.94-171.14,10Zm0,0,171-12,172-11.68,2.07-.14v2.08l.26,87.39.19,87.38.1,174.77v2.47l-2.47,0-165,1.24-82.49.53-82.5.42H671l-.07-1.82-5.81-165.79Z"/><path class="cls-1" d="M666.28,703.69c27.46-2.15,54.93-3.8,82.41-5.29,13.74-.79,27.49-1.4,41.23-2.09l41.24-1.81L872.41,693c13.76-.42,27.51-.93,41.26-1.26,27.52-.75,55-1.32,82.57-1.4-27.45,2.16-54.93,3.82-82.41,5.3-13.74.79-27.48,1.4-41.23,2.09l-41.24,1.81L790.11,701c-13.75.42-27.5.93-41.26,1.26C721.34,703,693.82,703.61,666.28,703.69Z"/><path class="cls-1" d="M672.81,767.54c27.47-1.6,55-2.7,82.45-3.63,13.74-.51,27.49-.84,41.23-1.26l41.25-1L879,761c13.76-.14,27.5-.38,41.26-.43,27.5-.19,55-.21,82.53.27-27.48,1.6-55,2.71-82.45,3.64-13.75.51-27.49.83-41.24,1.25l-41.24,1-41.25.7c-13.75.15-27.5.37-41.25.42C727.83,768,700.32,768,672.81,767.54Z"/><path class="cls-1" d="M672.92,824.43c27.47-1.35,55-2.21,82.44-2.9,13.74-.39,27.48-.6,41.23-.9l41.22-.61,41.24-.35c13.74,0,27.49-.13,41.23-.06,27.49,0,55,.27,82.49,1-27.48,1.36-55,2.22-82.44,2.91-13.74.39-27.49.6-41.23.89l-41.23.61-41.23.34c-13.75,0-27.49.14-41.24.06C727.91,825.37,700.42,825.14,672.92,824.43Z"/><path class="cls-1" d="M672.92,886c27.47-1.36,55-2.22,82.44-2.9,13.74-.39,27.48-.6,41.23-.9l41.22-.61,41.24-.35c13.74,0,27.49-.14,41.23-.06,27.49,0,55,.27,82.49,1-27.48,1.36-55,2.22-82.44,2.91-13.74.39-27.49.59-41.23.89l-41.23.61-41.23.34c-13.75,0-27.49.13-41.24.06C727.91,886.88,700.42,886.66,672.92,886Z"/><path class="cls-1" d="M672.92,935.35c27.47-1.36,55-2.22,82.44-2.9,13.74-.39,27.48-.6,41.23-.9l41.22-.61,41.24-.35c13.74,0,27.49-.14,41.23-.06,27.49,0,55,.27,82.49,1-27.48,1.36-55,2.22-82.44,2.91-13.74.39-27.49.59-41.23.89l-41.23.61-41.23.34c-13.75,0-27.49.14-41.24.06C727.91,936.29,700.42,936.06,672.92,935.35Z"/><path class="cls-1" d="M930.52,636.5c1.89,28.91,3.29,57.84,4.51,86.77.66,14.47,1.14,28.94,1.7,43.41l1.42,43.41,1.15,43.43c.29,14.47.67,29,.87,43.43.49,28.95.8,57.91.61,86.89-1.89-28.92-3.29-57.85-4.51-86.78-.66-14.47-1.13-28.94-1.7-43.41l-1.41-43.41L932,766.82c-.29-14.48-.67-29-.87-43.43C930.66,694.43,930.34,665.47,930.52,636.5Z"/><path class="cls-1" d="M697.17,653.64c2.15,27.48,3.81,55,5.3,82.47.79,13.75,1.4,27.51,2.09,41.26l1.82,41.27,1.55,41.28c.42,13.76.93,27.52,1.26,41.29.75,27.53,1.33,55.07,1.4,82.63-2.15-27.48-3.82-55-5.3-82.47-.79-13.75-1.4-27.51-2.09-41.26l-1.81-41.27-1.54-41.28c-.43-13.76-.94-27.52-1.26-41.29C697.83,708.74,697.26,681.2,697.17,653.64Z"/><path class="cls-6" d="M774.06,591.32a277,277,0,0,0-.84,29.16l-1.44,0a35.78,35.78,0,0,1-6.06-.33,10.42,10.42,0,0,1-4.63-1.62l-1.15-4.33q-.06-2.84,0-8.29t0-7.1l.43-17.36c0-2.05,0-4.83,0-8.32s.08-6,.05-7.38l-3.59.06a109.16,109.16,0,0,1-12-.27,40.88,40.88,0,0,1-11.27-2.82l-.1-2a157.9,157.9,0,0,1,17.65-3.29c4.73-.6,8-1,9.74-1.19,3.81-.41,7.28-.64,10.38-.7q3.6-.07,10.39-.39c4.54-.21,7.83-.34,9.89-.37l3.8,1a1.82,1.82,0,0,1,.79,1.62l.1,1.89a40.77,40.77,0,0,0-17.39,3.92A155.77,155.77,0,0,0,774.06,591.32Z"/><path class="cls-6" d="M838.36,582.58q1.41,8.73,3.5,16.95a127.17,127.17,0,0,0,5.31,16.28,8.61,8.61,0,0,0-2.76.62,19.63,19.63,0,0,1-4.58,1.41l-1.14,0-.82-.3q-5.19-.85-7-6.42-2.55-8-3.39-8.95-1.44.54-11.49,2.74-7.61,1.65-11.1,3.86a9.79,9.79,0,0,0-4.81,8.92l0,2.26-.76,0a4.73,4.73,0,0,1-2.79-1,16.75,16.75,0,0,1-2.3-2,58.71,58.71,0,0,1,3.55-12.23q1.8-4.38,5.32-11.63.79-1.59,2.36-5.09t2.85-6.41l11.72-26.56a10.45,10.45,0,0,1,4.51-1.16,24.81,24.81,0,0,1,5.75.77A48,48,0,0,0,836,556a7.66,7.66,0,0,1,.49,2.7l0,1.89c-.11.68-.18,1.2-.22,1.58l-.26,3q.54,4.9,1.09,9.12C837.53,577.15,837.93,579.9,838.36,582.58Zm-22.57-.52-2.92,5.6c-.65,1.23-1.16,2.29-1.52,3.18a32.68,32.68,0,0,0-2.79,8.87c1.05-.14,2.15-.32,3.3-.53s2.5-.5,4-.87q4.07-1,10.52-3.22l-4.36-20.65-.9-.93Z"/><path class="cls-6" d="M894.64,566.52q-2.16,2.37-3.27,3.72-1.54,1.85-3.82,4.86L881,583.73q3,7.88,6.09,15.7a65.82,65.82,0,0,0,8.28,14.9l.2.44.07.44c0,.75-.73,1.38-2.23,1.87l-2,.6a11.77,11.77,0,0,1-10.44-5c-.77-1.07-1.77-2.57-3-4.48-1-1.54-2-3.1-3-4.67-.22-.55-.42-1-.59-1.32s-.52-.89-1-1.68l-2.27-3.36a91.51,91.51,0,0,0-6,7.17l-5.59,7.49c-1.18,1.57-2.24,3-3.16,4.16a36.44,36.44,0,0,1-2.37,2.82l-.88.2a2.71,2.71,0,0,1-1.65-.6l-1.65-1.23a68,68,0,0,1,7.73-14.38L867,589l-5.32-11.45q-1.46-3.32-2.67-6.23t-2.15-5.61a77.13,77.13,0,0,1-3.26-12.12l1.07-.15h.88l1.2,0a10.68,10.68,0,0,1,1.71.22l4.8.67a6.74,6.74,0,0,0,1-.12l.88-.17a5.15,5.15,0,0,1,3.24,1.45l2.58,2.79a64.94,64.94,0,0,0,2.5,9,61.36,61.36,0,0,0,4,8.94q3.87-5,8.69-10.5,4.25-4.87,9.69-10.58a3.13,3.13,0,0,1,1.32-.28,10.46,10.46,0,0,1,3.68,1.38,4.85,4.85,0,0,0,2.34.78l-.34,1.64q-1.86,1.55-4.22,3.8Q896.61,564.34,894.64,566.52Z"/><path class="cls-5" d="M1638.43,1650.1c29.4-11.7,295.11-212.35,271-359.81s-180.91,45.31-180.91,45.31,88.13-179.5,54.35-243.15-160-7.84-209.72,226.73-39.1,327.6-39.1,327.6S1578,1674.18,1638.43,1650.1Z"/><g class="cls-8"><path class="cls-1" d="M1875.35,1255.9q-32.05,45.86-64.37,91.54l-32.31,45.67-32.37,45.63-32.41,45.61-32.49,45.55-32.51,45.53-32.57,45.49-7,9.71,2.83-11.6q16-65.74,32.35-131.41l16.29-65.67,16.36-65.66,16.45-65.64,16.56-65.61q16.63-65.58,33.51-131.12-15.33,65.91-31.12,131.71l-15.77,65.81L1681,1357.21,1665,1423l-16,65.74q-16.11,65.71-32.28,131.42l-4.12-1.9,32.65-45.43,32.72-45.38,32.74-45.37,32.82-45.32,32.85-45.28,32.92-45.25Q1842.23,1301,1875.35,1255.9Z"/></g><g class="cls-8"><path class="cls-1" d="M1805.11,1275.3c.58,6.38,1,12.77,1.4,19.15.22,3.19.36,6.38.54,9.58s.33,6.38.48,9.57q.42,9.59.73,19.16t.51,19.17l-2.79-2.25,11-2.17q5.51-1.07,11-2.09,11-2.07,22-4,5.52-.95,11-1.86l11.07-1.75c7.39-1.12,14.78-2.23,22.21-3.12-7.22,2-14.48,3.75-21.74,5.51l-10.92,2.56c-3.64.82-7.28,1.65-10.93,2.45q-10.95,2.4-21.92,4.65-5.47,1.14-11,2.22l-11,2.15-2.74.53,0-2.78q-.13-9.59-.16-19.17t.07-19.18c0-3.19.08-6.39.15-9.58s.1-6.4.2-9.59C1804.54,1288.09,1804.74,1281.7,1805.11,1275.3Z"/></g><g class="cls-8"><path class="cls-1" d="M1741.43,1346.17c.46,8.12.71,16.23,1,24.34s.42,16.22.52,24.33.16,16.22.23,24.33,0,16.23,0,24.33l-2.58-2.35,12.36-1.19,12.36-1.12,12.37-1,6.18-.52,6.19-.47c4.13-.3,8.25-.64,12.38-.92l12.39-.82c8.27-.48,16.54-1,24.82-1.27-8.18,1.34-16.39,2.45-24.59,3.59l-12.31,1.59c-4.11.53-8.22,1-12.33,1.51l-6.16.74-6.17.69-12.33,1.38-12.35,1.3-12.35,1.24-2.6.26,0-2.62c.07-8.11.15-16.22.3-24.32s.29-16.22.56-24.33.52-16.22.85-24.33S1740.86,1354.28,1741.43,1346.17Z"/></g><g class="cls-8"><path class="cls-1" d="M1698,1101c2.82,5.42,5.41,10.93,8,16.45s5.07,11.07,7.5,16.64,4.83,11.17,7.15,16.79,4.62,11.26,6.87,16.91l-3.29-1.16,6.26-3.4,6.28-3.36c4.19-2.22,8.4-4.43,12.63-6.58s8.48-4.29,12.77-6.35,8.58-4.11,12.94-6c-3.93,2.7-7.92,5.28-11.93,7.84s-8.05,5.06-12.11,7.53-8.14,4.89-12.23,7.3l-6.16,3.58-6.18,3.53-2.28,1.3-1-2.46c-2.31-5.62-4.6-11.26-6.82-16.92s-4.4-11.35-6.53-17-4.19-11.43-6.18-17.18S1699.72,1106.85,1698,1101Z"/></g><g class="cls-8"><path class="cls-1" d="M1635.75,1210.33c5.28,7,10.37,14.21,15.44,21.39,2.52,3.61,5,7.2,7.55,10.82l7.46,10.87,7.37,10.92c2.45,3.65,4.9,7.29,7.32,11q7.29,11,14.44,22l-3.66-.3,7.14-7.69,7.21-7.64,7.21-7.63,7.28-7.58c2.41-2.53,4.86-5,7.31-7.53s4.89-5,7.37-7.49c4.94-5,9.9-9.92,15-14.77-4.4,5.46-8.9,10.83-13.43,16.18-2.25,2.69-4.55,5.33-6.82,8s-4.57,5.31-6.88,7.94l-6.92,7.9-7,7.85-7,7.83-7,7.79-2,2.22-1.66-2.52q-7.23-11-14.38-22.09-3.57-5.54-7.08-11.12l-7-11.14-7-11.2c-2.31-3.74-4.58-7.51-6.86-11.26C1644.58,1225.54,1640.07,1218,1635.75,1210.33Z"/></g><path class="cls-10" d="M1204.41,596.21q-.09,0-8.44-4t-13.65-4q-10.38,0-10.39,9.65,0,5.48,9.65,11.41,15.4,9.38,17.91,11.51,9.66,8.44,9.66,20.23,0,25.07-31,33.41.74,14.76.74,16.34,0,.91-2,1.11a21.66,21.66,0,0,1-4,0l-2.88-.28a27.09,27.09,0,0,0-3.52.33,28.75,28.75,0,0,1-3.44.32,3.42,3.42,0,0,1-1.39-.28c-.37-.55-.56-2.07-.56-4.54,0-2,.13-5.05.37-9.19q-24.87,0-25.24-3.44a6.23,6.23,0,0,1,.09-1.76c.06-1,.1-1.61.1-1.86a74.22,74.22,0,0,0-.65-8.91,46.55,46.55,0,0,0-1.4-5.84,23.71,23.71,0,0,1-1.11-5.85c0-1.3.71-2,2.14-2a43.88,43.88,0,0,1,8.21,1.35,43.87,43.87,0,0,0,9.14,1.34q16.33,0,16.33-10.11,0-5.29-9.37-11.88-15.32-10.68-17.54-12.9-9.37-8.91-9.37-20a30.72,30.72,0,0,1,9-21.81,38.23,38.23,0,0,1,21-11.42c0,.56-.09-.93-.28-4.45a38.49,38.49,0,0,1,.1-6.22c.24-2.1.83-3.16,1.76-3.16h16c.75,0,1.21.93,1.39,2.79a32,32,0,0,1,.1,5.66c-.13,3.28-.19,4.7-.19,4.27q5.48.38,17.54,4.17,13.83,4.36,13.83,7.52a9.51,9.51,0,0,1-.56,2.41c-.86,1.86-2,4.71-3.43,8.54-.43,2.11-1.21,5.2-2.32,9.28C1206.21,595.5,1205.46,596.21,1204.41,596.21Z"/><path class="cls-3" d="M1353.88,527.09q-.12,0-11.28-5.33t-18.22-5.33q-13.89,0-13.88,12.89,0,7.32,12.89,15.25,20.58,12.52,23.92,15.37,12.9,11.28,12.9,27,0,33.46-41.41,44.62,1,19.71,1,21.82c0,.83-.91,1.32-2.72,1.49a29,29,0,0,1-5.33,0l-3.85-.37a36.73,36.73,0,0,0-4.71.43,36.23,36.23,0,0,1-4.58.43,4.58,4.58,0,0,1-1.86-.37c-.5-.74-.75-2.77-.75-6.07q0-4,.5-12.27-33.23,0-33.72-4.59a8.41,8.41,0,0,1,.12-2.36c.08-1.32.13-2.14.13-2.48a97.92,97.92,0,0,0-.87-11.9,64,64,0,0,0-1.86-7.81,31.61,31.61,0,0,1-1.49-7.81c0-1.73,1-2.6,2.85-2.6a58.65,58.65,0,0,1,11,1.8,58.83,58.83,0,0,0,12.2,1.8q21.83,0,21.82-13.52,0-7.07-12.52-15.86-20.45-14.26-23.43-17.23-12.53-11.91-12.52-26.66,0-16.49,12-29.13a51.09,51.09,0,0,1,28-15.25c0,.75-.12-1.24-.37-5.95a52.11,52.11,0,0,1,.12-8.3q.49-4.21,2.36-4.22h21.32q1.49,0,1.86,3.72a43.16,43.16,0,0,1,.13,7.56q-.26,6.57-.25,5.71,7.3.5,23.43,5.57,18.47,5.83,18.47,10a13.16,13.16,0,0,1-.75,3.23q-1.72,3.72-4.58,11.4-.87,4.21-3.1,12.4C1356.28,526.14,1355.29,527.09,1353.88,527.09Z"/><path class="cls-12" d="M1138.41,400.62c-.06,0-2.71-1.26-8-3.77s-9.54-3.76-12.87-3.76q-9.81,0-9.81,9.11,0,5.16,9.11,10.76,14.54,8.85,16.9,10.86,9.11,8,9.11,19.09,0,23.64-29.25,31.52.7,13.92.7,15.41c0,.58-.64.93-1.93,1.05a19.23,19.23,0,0,1-3.76,0l-2.71-.26a25.21,25.21,0,0,0-3.33.31,26.49,26.49,0,0,1-3.24.3A3.24,3.24,0,0,1,1098,491c-.34-.52-.52-2-.52-4.29q0-2.81.35-8.67-23.46,0-23.82-3.24a5.9,5.9,0,0,1,.09-1.66c.06-.93.09-1.52.09-1.75a71,71,0,0,0-.61-8.41,44.21,44.21,0,0,0-1.32-5.51,22.42,22.42,0,0,1-1-5.52c0-1.23.67-1.84,2-1.84a41.12,41.12,0,0,1,7.74,1.27,41.56,41.56,0,0,0,8.63,1.27q15.4,0,15.41-9.54,0-5-8.84-11.21-14.46-10.06-16.55-12.17-8.85-8.41-8.85-18.83a28.94,28.94,0,0,1,8.5-20.57,35.94,35.94,0,0,1,19.79-10.77q0,.78-.27-4.21a36.61,36.61,0,0,1,.09-5.86c.23-2,.79-3,1.66-3h15.06c.7,0,1.14.88,1.32,2.63a30.63,30.63,0,0,1,.08,5.34c-.11,3.09-.17,4.43-.17,4q5.16.36,16.55,3.95,13,4.11,13,7.09a9.14,9.14,0,0,1-.52,2.27q-1.23,2.63-3.24,8.06-.62,3-2.19,8.76Q1139.9,400.62,1138.41,400.62Z"/><path class="cls-15" d="M376.65,1762.69s-16.94,7.76-18.77,17.8,13.69,20.08,25.56,25.55,52,5.48,52.93,0-35.59-18.25-39.24-25.55-6.65-7.28-6.65-7.28Z"/><path class="cls-15" d="M631.94,1755.46s-9.37,15.06-8.39,28.79,11.77,19.62,27.46,19.62,49,2.94,54.93,0-14.71-17.66-31.39-23.54-14.71-10.79-14.71-10.79Z"/><path class="cls-16" d="M448.34,1157.16s-23.58,68.64-28.53,173.66-73,422.6-43.35,438.67,93.62-15.37,135.91-153.21C545.73,1507.56,547,1452,547,1452s28.41,202.62,44.48,253.28,53.12,66.72,66.71,68,23.48-106.25,16.06-190.27-58.51-383-58.51-383Z"/><path class="cls-17" d="M626,1652.11c-1,45.6-4.49,77-8.37,98.27-10.19-10.44-19.86-25.07-26.22-45.14C575.38,1654.58,547,1452,547,1452l13.59-133.44S628.51,1537.21,626,1652.11Z"/><path class="cls-17" d="M547,1452s-.17,7.34-2,21.88Z"/><polygon class="cls-18" points="554.28 941.44 551.61 931.2 550.17 930.16 551.1 929.23 550.34 925.78 543.69 953.3 554.28 941.44"/><polygon class="cls-19" points="554.09 922.48 548.8 939.9 574.33 954.21 537.17 974.55 503.07 959.78 511.21 938.55 521.58 935.01 519.7 903.33 544.83 907.84 554.09 922.48"/><path class="cls-20" d="M507.21,957.82l30.31,16.54,9.36-5.12,12.52-23.4-10.6-5.94,2.2-7.26c-4.09-2.2-15.07-7.26-23.49-3.59a19.06,19.06,0,0,0-6,4.6l.08,1.36-1.81.61C512.64,944.37,507.21,957.82,507.21,957.82Z"/><path class="cls-20" d="M574.28,888.28c-.56-28.74-20.75-42.59-35.56-36.65-12.11,4.84-28.37,22.65-24.14,41.8-2.57.05-5.21,1.27-6,5.73-1.69,9.43,5.64,10.74,9.16,9.21a9.13,9.13,0,0,0,2.95-2.13c4.6,6.08,11.8,12,22.39,17.5C564.38,934.74,574.71,910,574.28,888.28Z"/><path class="cls-20" d="M792.39,935.9c-10.13,1.67-16.91,13.22-22.12,18.1-39.9,37.37-107.59,35.33-137.8,20.1l1.7,75.15c46.12,3.24,83-15.21,133.43-70.12,0,0,1.4,2.87,12.09-1.89C782.13,976.15,791.89,964,791,961c-1.07-3.59-10-8-10-8C783,946,801.16,934.46,792.39,935.9Z"/><path class="cls-10" d="M517.75,935.93S526,959.52,540,956.52c3.28-.71,5-3.43,6.71-5a15.05,15.05,0,0,0,4.55-12.11s40.29,1.17,65.34,19.08C633,970.21,726,971,762,959c0,8,4,19,0,30-65,80-122.2,68.38-125,66.79-2,76.88,14.74,147.94-14,183.21-31,38-131.14-38.41-183.26-55l14.18-101.92s-24.39-29.74-15.18-68.76,29.92-58.6,45.52-65.49A285.08,285.08,0,0,1,517.75,935.93Z"/><path class="cls-21" d="M441.06,1184.42c52.47,17.44,151.2,92.26,181.94,54.58a62,62,0,0,0,9.84-17.51c-40.64-10.47-96-34.67-138-76.57-36.49-36.41-33.06-100.11-37.85-105.54l-4.8,40.31c1.07,1.54,1.75,2.37,1.75,2.37L439.74,1184Z"/><polygon class="cls-22" points="357.02 1105.88 473.93 1074.92 490.17 1218.33 358.59 1120.82 357.02 1105.88"/><polygon class="cls-23" points="345.08 1114.25 462.37 1093.51 490.17 1218.33 384.83 1248.51 345.08 1114.25"/><path class="cls-20" d="M442,994.64s-66.9,77.56-64.14,143.79,18,85.75,18,85.75-5.25,14.22,1.14,21.45,9.15-.06,14.33-1.67,14.06-1.32,13-9.27a11.63,11.63,0,0,0-8.52-9.64,29.5,29.5,0,0,1,7.34,0s-6.79-8-11.85-6.54c-13.88-42.21,5-95.2,58.25-146.6Z"/><path class="cls-10" d="M488.37,946.05C454.44,955.11,400,1007,378,1094c-15.82,62.54,9,125,9,125l21-15c10-78,32-120,82-140.34Z"/><path class="cls-24" d="M508,1265a145.19,145.19,0,0,1-10.5,22.47,124.76,124.76,0,0,1-6.76,10.49,93.37,93.37,0,0,1-8,9.68,64,64,0,0,1-9.63,8.25,42.92,42.92,0,0,1-11.49,5.63,32.7,32.7,0,0,1-12.69,1.23A33.73,33.73,0,0,1,437,1319a42.15,42.15,0,0,0,12,1.78,31.43,31.43,0,0,0,5.91-.61,35.46,35.46,0,0,0,5.68-1.61,45,45,0,0,0,10.31-5.76,65,65,0,0,0,8.93-7.93,101.49,101.49,0,0,0,7.88-9.17c2.51-3.18,4.82-6.53,7.14-9.88C499.43,1279.06,503.66,1272,508,1265Z"/><path class="cls-24" d="M403,1039a37,37,0,0,1,9.44,18.76,47.72,47.72,0,0,1-1,21.35,40.67,40.67,0,0,1-10.63,18.63,23.69,23.69,0,0,1-9.29,5.63A16.49,16.49,0,0,1,381,1103a18.17,18.17,0,0,0,9.87-1.47,24,24,0,0,0,7.74-6,44.45,44.45,0,0,0,9-17.52,54.68,54.68,0,0,0,1.73-19.82A48,48,0,0,0,403,1039Z"/><path class="cls-22" d="M567.18,813.51c-7.69-4.38-33.69-12.45-48.06,17.43-1.28-5.58-4.59-12-13.09-11.75-15,.35-11.06,22.08-11.06,22.08s-10.68-7.06-14.67,4.34,9.59,17.21,9.59,17.21-15.21-1.64-12,12.12c2,8.53,10.74,10.28,17.09,10.38a30.16,30.16,0,0,0-1.22,5.79C492,907,504.69,914.68,511.16,914.76a60.87,60.87,0,0,0,7.8-.42,5.08,5.08,0,0,0,4.47-4.82c-1-1.09-1.93-2.18-2.76-3.28a9.13,9.13,0,0,1-2.95,2.13c-3.52,1.53-10.85.22-9.16-9.21.81-4.47,3.46-5.68,6-5.73-2.76-12.51,3.21-24.44,11.06-32.56,0,0,14.45,7.21,32.89.8a21.84,21.84,0,0,0,5.3-2.74C578.15,848.86,582.14,822,567.18,813.51Z"/><path class="cls-25" d="M1697.39,1776.08c-4.58-45.42-28.08-288.58-62-330.77-24.64-30.64-15.25-174.14-20.81-224.5s-33.4-73.36-33.4-73.36h-41.74s-21.34,33.94-23.2,156.57,32.47,454.4,32.47,454.4-40.2,4.6-46.77,13.36,18.62,13.14,37.23,8.76c15.69-3.7,23.6-9.72,25.7-11.52,0,0,18.66-213.46,16.78-292.54l94.92,295c.32.32-47.3,17.43-44.88,27,2.71,10.67,60,1.52,66.7-5.58C1703.78,1787.16,1699.39,1779.1,1697.39,1776.08Z"/><path class="cls-15" d="M1628.57,924.7c3.1,10.94,8.69,15.23,33.78,30.45,27.08,16.42,36.13,56.64,26.74,84.73-21,62.72-78.75,74.1-125.68,52.18s-35.32-119-31.6-138.82-2.43-35-3.75-46.64C1519.89,834.55,1603,834.55,1628.57,924.7Z"/><path class="cls-24" d="M1565.68,1055c-46.94-21.92-33.17-81.13-29.45-100.92,1.81-9.62,4.45-21.23,3.11-30.3-1.2-8.1,3.43-15.59,11.49-14.14l9.68,2.76,25.41,10s7,19.65,36.27,42.1,44.6,40.7,46.93,68.76c2.31,27.83-21.55,51.74-67.91,57.65C1591.82,1089.56,1574.78,1059.29,1565.68,1055Z"/><polygon class="cls-26" points="1347.54 920.29 1352.84 925.59 1407.64 939.73 1407.64 933.55 1355.49 920.29 1347.54 920.29"/><polygon class="cls-27" points="1355.15 920.29 1347.54 920.29 1352.75 925.5 1355.15 920.29"/><path class="cls-25" d="M1560.15,989.07c-47.77-2.6-95.25-23.58-141.64-59.43,0,0-5.15-12.81-18.19-13.17s-12.15,5.17-11.4,9.92,14.68,6.43,13.48,9.06-12.88-3-10.67.75S1410.9,943,1410.9,943c45.27,55.26,75.4,64,138.91,72.84Z"/><path class="cls-22" d="M1562.32,984.81c-19.45-6.18-39.78-.88-62.76-8.84l-1.76,42.43c20.33,15,32.7,15.91,38,18.56Z"/><path class="cls-25" d="M1559.07,959.74c4,6,7.27,12.54,4.48,23.12l-10.44,8.21,10.44,33.56,41.77-19.39s-20.89-14.92-23.12-29.09a97.51,97.51,0,0,1-.75-25.36Z"/><path class="cls-28" d="M1592.58,993.92l-4.42,5.35a79.77,79.77,0,0,0-11.93-17.9,25.15,25.15,0,0,0-11.72-7.65c-.4-5.61-2.77-9.89-5.44-14l22.38-9a97.51,97.51,0,0,0,.75,25.36C1583.18,982.37,1587.76,988.74,1592.58,993.92Z"/><path class="cls-25" d="M1539.28,884.14c-14,5.68-1.89,29.82-2,42.67s-.27,25.71,8.88,32.36,40.74,1.63,41.71-21.52-16.13-58.75-16.13-58.75Z"/><path class="cls-15" d="M1536.64,885.65c12.75,18,26.76,33.28,48.74,31.55l69.75,34s-31.82-15-31.34-52.74c.23-18.2-19.51-48.45-43.52-48.48C1527.14,849.93,1536.64,885.65,1536.64,885.65Z"/><path class="cls-23" d="M1530.15,1182.77s-21.75,46-22.63,122.89S1519,1569.94,1519,1569.94s61.87,25.63,135.23,11.49,84.86-32.5,84.86-32.5-68.95-139-76-207.92-8.23-122.31-24.45-150-44.49-35.63-44.49-35.63l-63.1,23.41Z"/><path class="cls-23" d="M1584.69,983.22s-6.46,20.84-17.67,19.24a12.47,12.47,0,0,1-2.93-.85c-8-3.27-6.71-13.9-6.71-13.9s-26.88,13.9-37.49,36.88c-8.89,19.27-7.34,46,.67,60.37,6.21,11.18,1.33,61.18-1.18,83.08A21.17,21.17,0,0,0,1527,1187a9.47,9.47,0,0,0,1.62,1.1c21.6,10,75.34,6.29,91.25-11.78l-9.62-107.34c10.7,3,19.93-.17,28-8,0,0,0-36-16.82-52.87A123.62,123.62,0,0,0,1584.69,983.22Z"/><path class="cls-22" d="M1627.92,1068l-8.15-43.44-21-16c3.55,5.84,7.29,11.71,11.08,18.12,4.53,7.66-1.37,17.55-8.32,20.91a14.08,14.08,0,0,1-4.72,1.36c4.49,17.18,5.48,33.46-2.67,41.94-22.1,23-8.84,56.57-23,79.55-10.53,17.11-38.21,8.74-51.66,3.35A20.9,20.9,0,0,0,1527,1187a9.47,9.47,0,0,0,1.62,1.1c21.6,10,75.34,6.29,91.25-11.78l-9.62-107.34A25.93,25.93,0,0,0,1627.92,1068Z"/><path class="cls-25" d="M1636.6,1062.5c-7.87,4.68-16.76,6.5-26.33,6.44,14.42,60.88,8.22,101.88,3.32,156.52,0,0-12.13,15.71-9.72,26.92s16,13.62,19.22,12.82a11.36,11.36,0,0,0,3.19-1.46,3.66,3.66,0,0,0,.93-5.33c-1.84-2.38-4.12-5.72-4.12-7.63a8.8,8.8,0,0,1,1.84-4.57,8.53,8.53,0,0,0,1.33-6.6l-.27-1.3a30.83,30.83,0,0,1,1.88-18.7C1656.73,1153.82,1647.45,1116.27,1636.6,1062.5Z"/><path class="cls-23" d="M1587.89,984.65c37.18,3.7,61.93,52.31,59.28,90.32l-34.47,9.72s-2.65-15.91-8.84-22.1C1581.61,1040.34,1587.89,984.65,1587.89,984.65Z"/><path class="cls-24" d="M1697.39,1776.08c0-.09,0-.18,0-.26-9.25,4.12-32.87,14-37.82,9.78s7.13-9.94,12.44-12.2c-11.81,4.79-42.24,17.35-40.29,25a3.57,3.57,0,0,0,1.2,1.84,4.37,4.37,0,0,1,1.95,1.18c12.57,5.48,57.62-2.35,63.55-8.6C1703.78,1787.16,1699.39,1779.1,1697.39,1776.08Z"/><path class="cls-24" d="M1674.37,1772.43Z"/><path class="cls-24" d="M1527,1766.16c-2-3.26,4.57-5,8.14-5.72-12.31,2.13-29.1,5.94-33.15,11.34-6.57,8.76,18.62,13.14,37.23,8.76,15.69-3.7,23.6-9.72,25.7-11.52,0,0,.24-2.82.68-7.93C1565.56,1761.09,1529.62,1770.58,1527,1766.16Z"/></svg>